<svg xmlns="http://www.w3.org/2000/svg" width="350" height="230" viewBox="0 0 350 230"><defs><style>.a{fill:#ebebeb;}.b{fill:#e6e6e6;}.c{fill:#f0f0f0;}.d{fill:#f5f5f5;}.e,.j,.k{fill:#fafafa;}.f{fill:#fff;}.g,.k,.p{opacity:0.4;}.h{fill:#e0e0e0;}.i{fill:#d71a5f;}.j{opacity:0.7;}.l{fill:#ce7a63;}.m{fill:#263238;}.n{opacity:0.2;}.o{fill:#ba4d3c;}</style></defs><g transform="translate(0 0)"><rect class="a" width="350" height="0.154" transform="translate(0 202.12)"/><rect class="a" width="23.184" height="0.154" transform="translate(71.414 212.054)"/><rect class="a" width="30.485" height="0.154" transform="translate(119.798 207.38)"/><rect class="a" width="33.992" height="0.154" transform="translate(36.722 206.325)"/><rect class="a" width="24.003" height="0.154" transform="translate(173.327 208.411)"/><rect class="a" width="5.208" height="0.154" transform="translate(309.722 208.411)"/><rect class="a" width="33.999" height="0.154" transform="translate(203.56 208.411)"/><rect class="a" width="65.576" height="0.154" transform="translate(228.634 211.016)"/><path class="a" d="M177.363,229.587H42.2a3.782,3.782,0,0,1-3.99-3.525V58.494A3.788,3.788,0,0,1,42.2,55H177.363a3.783,3.783,0,0,1,4,3.525V226.062A3.783,3.783,0,0,1,177.363,229.587ZM42.2,55.123a3.617,3.617,0,0,0-3.815,3.371V226.062a3.617,3.617,0,0,0,3.815,3.371H177.363a3.624,3.624,0,0,0,3.822-3.371V58.494a3.624,3.624,0,0,0-3.822-3.371Z" transform="translate(-11.463 -55)"/><path class="a" d="M393.667,229.587H258.5a3.79,3.79,0,0,1-4-3.525V58.494a3.8,3.8,0,0,1,4-3.494h135.17a3.787,3.787,0,0,1,3.983,3.494V226.062A3.781,3.781,0,0,1,393.667,229.587ZM258.5,55.123a3.624,3.624,0,0,0-3.822,3.371V226.062a3.624,3.624,0,0,0,3.822,3.371h135.17a3.625,3.625,0,0,0,3.822-3.371V58.494a3.624,3.624,0,0,0-3.822-3.371Z" transform="translate(-76.35 -55)"/><rect class="b" width="9.366" height="37.492" transform="translate(57.232 202.114) rotate(180)"/><rect class="c" width="6.51" height="37.492" transform="translate(51.415 202.114) rotate(180)"/><rect class="c" width="37.205" height="11.884" transform="translate(44.912 164.629)"/><rect class="b" width="9.373" height="25.608" transform="translate(88.277 202.114) rotate(180)"/><rect class="c" width="6.16" height="25.608" transform="translate(82.117 202.114) rotate(180)"/><rect class="b" width="9.373" height="25.608" transform="translate(154.973 202.114) rotate(180)"/><rect class="c" width="6.51" height="25.608" transform="translate(149.149 202.114) rotate(180)"/><rect class="b" width="9.373" height="25.608" transform="translate(123.956 202.114) rotate(180)"/><rect class="c" width="6.51" height="25.608" transform="translate(118.132 202.114) rotate(180)"/><rect class="b" width="72.856" height="11.884" transform="translate(154.973 176.507) rotate(180)"/><rect class="b" width="106.638" height="89.368" transform="translate(308.392 108.598) rotate(180)"/><rect class="d" width="107.891" height="89.368" transform="translate(307.293 108.598) rotate(180)"/><path class="b" d="M392.377,82.538h-106.6a.888.888,0,0,1-.931-.821h0a.887.887,0,0,1,.931-.827h106.6a.887.887,0,0,1,.931.827h0A.888.888,0,0,1,392.377,82.538Z" transform="translate(-85.455 -64.907)"/><rect class="b" width="106.638" height="1.63" transform="translate(308.392 110.234) rotate(180)"/><rect class="d" width="102.718" height="1.63" transform="translate(291.312 110.234) rotate(180)"/><rect class="e" width="81.787" height="101.276" transform="translate(303.982 23.021) rotate(90)"/><path class="f" d="M374.641,174.077,366.829,92.29H352.78l7.812,81.787Z" transform="translate(-105.834 -69.269)"/><path class="f" d="M352.119,174.077,344.307,92.29H337.79l7.812,81.787Z" transform="translate(-101.337 -69.269)"/><rect class="b" width="73.742" height="0.42" transform="translate(203.126 22.509) rotate(90)"/><g class="g" transform="translate(280.226 14.359)"><path class="b" d="M430.974,83.656v74.786h0c-6.2,0-11.823-3.219-14.357-8.211-5.383-10.551-13.678-31.324-16.24-62.71-.392-4.846,1.4-9.26,3.766-9.26h24.234C429.812,78.241,430.974,80.649,430.974,83.656Z" transform="translate(-400.323 -78.26)"/></g><g class="g" transform="translate(196.7 14.359)"><path class="b" d="M281,83.656v74.786h0c6.2-.007,11.82-3.221,14.357-8.211,5.376-10.551,13.671-31.324,16.233-62.71.4-4.846-1.4-9.26-3.759-9.26H283.59C282.155,78.241,281,80.649,281,83.656Z" transform="translate(-281 -78.26)"/></g><rect class="b" width="106.638" height="89.368" transform="translate(153.258 108.598) rotate(180)"/><rect class="d" width="107.891" height="89.368" transform="translate(152.152 108.598) rotate(180)"/><path class="b" d="M170.75,82.538H64.161a.888.888,0,0,1-.931-.821h0a.887.887,0,0,1,.931-.827H170.75a.887.887,0,0,1,.931.827h0A.888.888,0,0,1,170.75,82.538Z" transform="translate(-18.969 -64.907)"/><rect class="b" width="106.638" height="1.63" transform="translate(153.258 110.234) rotate(180)"/><rect class="d" width="102.718" height="1.63" transform="translate(136.178 110.234) rotate(180)"/><rect class="e" width="81.787" height="101.276" transform="translate(148.848 23.021) rotate(90)"/><path class="f" d="M153.021,174.077,145.209,92.29H131.16l7.8,81.787Z" transform="translate(-39.348 -69.269)"/><path class="f" d="M130.5,174.077,122.687,92.29H116.17l7.805,81.787Z" transform="translate(-34.851 -69.269)"/><rect class="b" width="73.742" height="0.42" transform="translate(47.992 22.509) rotate(90)"/><g class="g" transform="translate(125.111 14.359)"><path class="b" d="M209.355,83.656v74.786h0c-6.193-.014-11.8-3.227-14.336-8.211-5.376-10.551-13.671-31.324-16.233-62.71-.4-4.846,1.4-9.26,3.759-9.26h24.234C208.193,78.241,209.355,80.649,209.355,83.656Z" transform="translate(-178.731 -78.26)"/></g><g class="g" transform="translate(41.552 14.359)"><path class="b" d="M59.36,83.656v74.786h0c6.2,0,11.823-3.219,14.357-8.211,5.383-10.551,13.678-31.324,16.24-62.71.4-4.846-1.4-9.26-3.766-9.26H61.957C60.508,78.241,59.36,80.649,59.36,83.656Z" transform="translate(-59.36 -78.26)"/></g><rect class="b" width="25.704" height="55.808" transform="translate(213.794 202.12) rotate(180)"/><path class="c" d="M273.576,376.545H268.69V367.1h10Z" transform="translate(-80.607 -174.425)"/><rect class="b" width="25.704" height="55.808" transform="translate(309.855 202.12) rotate(180)"/><rect class="h" width="26.873" height="3.192" transform="translate(312.62 146.312) rotate(180)"/><rect class="c" width="100.324" height="50.012" transform="translate(288.414 196.324) rotate(180)"/><rect class="d" width="104.874" height="3.192" transform="translate(290.199 146.312) rotate(180)"/><rect class="e" width="15.786" height="44.737" transform="translate(191.877 184.52) rotate(-90)"/><rect class="e" width="15.786" height="44.737" transform="translate(239.89 184.514) rotate(-90)"/><path class="c" d="M363.974,330.746h8.869a17.652,17.652,0,0,0,10.164-2.976h-29.2a17.682,17.682,0,0,0,10.164,2.976Z" transform="translate(-106.143 -159.375)"/><path class="c" d="M294.734,330.746h8.855a17.683,17.683,0,0,0,10.164-2.976H284.57a17.683,17.683,0,0,0,10.164,2.976Z" transform="translate(-85.371 -159.375)"/><rect class="e" width="15.786" height="44.737" transform="translate(191.87 165.641) rotate(-90)"/><rect class="e" width="15.786" height="44.737" transform="translate(239.89 165.635) rotate(-90)"/><path class="c" d="M363.974,300.156h8.869a17.651,17.651,0,0,0,10.164-2.976h-29.2A17.682,17.682,0,0,0,363.974,300.156Z" transform="translate(-106.143 -147.67)"/><path class="c" d="M294.734,300.156h8.855a17.682,17.682,0,0,0,10.164-2.976H284.57A17.682,17.682,0,0,0,294.734,300.156Z" transform="translate(-85.371 -147.67)"/><path class="c" d="M402.847,376.545h4.886V367.1h-10Z" transform="translate(-119.319 -174.425)"/><path class="h" d="M154.87,282.023a4.077,4.077,0,0,0,2.922-.552,3.192,3.192,0,0,0,1.5-2.282c.455-3.605,4.753-1.9,7-7.05,3.206-7.279-6.622-4.908-.581-10.088,5.04-4.321-9.8-11.631-12.712-5.167-.756-.438-3.976-.525-6.391,4.908s.5,8.31-2.513,8.748c-2.205.321-3.353,2.581-2.45,5.044,1.232,3.358-2.275,3.34-1.463,5.655s2.618.451,4.613,3.056c1.792,2.327,5.88.84,6.65-1.142C152.182,281.288,152.973,281.714,154.87,282.023Z" transform="translate(-42.016 -131.272)"/><path class="a" d="M116.32,275.814c-2.632,0-5.453-1.624-5.3-4.42.252-4.63-5.985-3.309-7.819-10.236-2.583-9.773,6.146-3.352,3.234-12.575-2.1-6.711,19.019-12.964,18.494-4.044,1.134-.407,5.523.111,7.483,7.408s-2.688,10.353,1.288,11.5c2.9.827,3.92,3.889,2.1,6.791-2.485,3.988,2.275,4.642.609,7.408s-3.654.062-7,2.951c-2.989,2.581-8.176-.08-8.743-2.729C120.142,275.425,118.966,275.789,116.32,275.814Z" transform="translate(-30.815 -125.835)"/><path class="c" d="M158.638,294.78s-.7,16.6-27.139,16.6-27.139-16.6-27.139-16.6Z" transform="translate(-31.308 -146.752)"/></g><g transform="translate(39.277 216.023)"><ellipse class="d" cx="135.723" cy="6.988" rx="135.723" ry="6.988"/></g><g transform="translate(34.064 30.516)"><path class="i" d="M34-1.583c20.36.865,37.565,16.668,38.43,35.3s-14.939,33.031-35.3,32.166S-.437,49.213-1.3,30.583,13.637-2.448,34-1.583Z" transform="translate(0.004 40.667) rotate(-22.5)"/><path class="j" d="M34-1.583c20.36.865,37.565,16.668,38.43,35.3s-14.939,33.031-35.3,32.166S-.437,49.213-1.3,30.583,13.637-2.448,34-1.583Z" transform="translate(0 40.672) rotate(-22.5)"/><path class="i" d="M94.106,211.323c-.7,0-1.4,0-2.1-.043a.333.333,0,0,1-.336-.327.3.3,0,0,1,.117-.213.38.38,0,0,1,.254-.077c.7,0,1.4.043,2.1.043h.126a.311.311,0,1,1,0,.617Zm2.226-.049a.332.332,0,0,1-.343-.3.281.281,0,0,1,.088-.222.363.363,0,0,1,.241-.1c.7-.031,1.4-.074,2.1-.136a.343.343,0,0,1,.385.278.323.323,0,0,1-.315.34c-.7.062-1.4.111-2.1.142Zm-6.419-.13h0c-.7-.056-1.4-.13-2.1-.216a.323.323,0,0,1-.294-.352.3.3,0,0,1,.134-.2.378.378,0,0,1,.258-.057c.7.086,1.4.154,2.1.216a.311.311,0,1,1,0,.617Zm10.6-.235a.333.333,0,0,1-.343-.259.282.282,0,0,1,.064-.23.36.36,0,0,1,.23-.122c.7-.086,1.4-.191,2.058-.309a.356.356,0,0,1,.416.25.319.319,0,0,1-.283.367q-1.05.176-2.1.315Zm-14.756-.284h-.063c-.7-.117-1.4-.253-2.1-.4a.309.309,0,0,1-.259-.37.362.362,0,0,1,.427-.228q1.008.222,2.037.389a.318.318,0,0,1,.273.364.337.337,0,0,1-.315.222Zm18.9-.42a.346.346,0,0,1-.392-.272.322.322,0,0,1,.308-.346c.7-.148,1.351-.309,2.016-.482a.372.372,0,0,1,.448.222.318.318,0,0,1-.252.4c-.7.179-1.358.34-2.044.488Zm-22.96-.457a.27.27,0,0,1-.1,0c-.7-.173-1.358-.364-2.023-.568a.318.318,0,0,1-.235-.411.381.381,0,0,1,.466-.207c.658.2,1.323.389,1.988.562a.305.305,0,0,1,.238.383.344.344,0,0,1-.357.216Zm26.985-.617a.349.349,0,0,1-.329-.21.307.307,0,0,1,.217-.4c.651-.2,1.3-.414,1.946-.617a.39.39,0,0,1,.375.018.293.293,0,0,1,.14.308.328.328,0,0,1-.257.242c-.651.235-1.316.457-1.974.661a.4.4,0,0,1-.119-.012Zm-30.961-.617a.34.34,0,0,1-.133,0c-.651-.228-1.309-.475-1.946-.735a.3.3,0,0,1-.175-.407.336.336,0,0,1,.2-.164.393.393,0,0,1,.271.01c.623.253,1.274.5,1.918.728a.327.327,0,0,1,.191.165.27.27,0,0,1,0,.236.364.364,0,0,1-.343.16Zm34.846-.772a.342.342,0,0,1-.336-.242.3.3,0,0,1,.189-.345c.63-.259,1.26-.531,1.869-.809a.385.385,0,0,1,.266-.022.335.335,0,0,1,.2.152.276.276,0,0,1,.026.237.322.322,0,0,1-.173.183c-.623.284-1.26.562-1.9.821a.409.409,0,0,1-.168.018ZM73.9,206.971a.357.357,0,0,1-.161-.037c-.63-.284-1.253-.586-1.862-.9a.311.311,0,0,1-.206-.272.3.3,0,0,1,.186-.282.39.39,0,0,1,.37.023c.6.309,1.218.617,1.834.883a.3.3,0,0,1,.147.42.362.362,0,0,1-.329.161Zm42.392-.932a.348.348,0,0,1-.354-.226.3.3,0,0,1,.172-.354c.6-.3,1.2-.617,1.778-.957a.38.38,0,0,1,.483.086.293.293,0,0,1-.105.432c-.588.333-1.2.661-1.8.975a.46.46,0,0,1-.2.037Zm-46.032-.932a.346.346,0,0,1-.189-.049c-.595-.333-1.183-.685-1.757-1.05a.286.286,0,0,1-.077-.432.382.382,0,0,1,.49-.068c.56.352,1.141.7,1.722,1.031a.293.293,0,0,1,.1.432.385.385,0,0,1-.315.13Zm49.553-1.08a.382.382,0,0,1-.287-.13.291.291,0,0,1,.077-.432c.567-.352,1.127-.728,1.666-1.105a.383.383,0,0,1,.49.049.279.279,0,0,1,.076.227.3.3,0,0,1-.132.206c-.553.389-1.12.766-1.687,1.124a.354.354,0,0,1-.224.055Zm-52.976-1.074a.413.413,0,0,1-.217-.062c-.546-.389-1.1-.784-1.631-1.191a.286.286,0,0,1-.035-.438.386.386,0,0,1,.5-.031c.518.4,1.064.8,1.6,1.173a.287.287,0,0,1,.112.342A.35.35,0,0,1,66.834,202.952Zm56.266-1.235a.352.352,0,0,1-.331-.2.286.286,0,0,1,.1-.343c.518-.4,1.036-.821,1.54-1.235a.376.376,0,0,1,.49,0,.273.273,0,0,1,0,.432c-.511.432-1.036.852-1.561,1.235a.367.367,0,0,1-.259.117Zm-59.458-1.2a.368.368,0,0,1-.238-.086c-.511-.426-1.015-.87-1.5-1.321a.278.278,0,0,1,0-.432.384.384,0,0,1,.5,0c.476.444.973.883,1.477,1.3a.283.283,0,0,1,.081.339.353.353,0,0,1-.326.192Zm62.468-1.358a.368.368,0,0,1-.238-.086.284.284,0,0,1,0-.438c.476-.438.945-.9,1.4-1.358a.371.371,0,0,1,.343-.133.34.34,0,0,1,.283.216.286.286,0,0,1-.1.318c-.455.469-.931.932-1.4,1.383A.392.392,0,0,1,126.11,199.161ZM60.744,197.84a.387.387,0,0,1-.266-.1c-.455-.469-.91-.957-1.344-1.438a.29.29,0,0,1,.056-.438.382.382,0,0,1,.49.056c.427.475.875.951,1.33,1.414a.289.289,0,0,1-.035.438.4.4,0,0,1-.231.074Zm68.11-1.482a.38.38,0,0,1-.21-.068.285.285,0,0,1-.063-.432c.427-.482.847-.975,1.253-1.475a.365.365,0,0,1,.325-.151.35.35,0,0,1,.3.189.28.28,0,0,1-.057.32c-.406.506-.833,1.006-1.267,1.494A.375.375,0,0,1,128.854,196.359Zm-70.7-1.426a.359.359,0,0,1-.287-.13c-.406-.506-.8-1.025-1.183-1.543a.278.278,0,0,1-.03-.317.356.356,0,0,1,.3-.172.362.362,0,0,1,.315.156c.371.512.763,1.019,1.169,1.519a.281.281,0,0,1,.06.231.307.307,0,0,1-.144.2.4.4,0,0,1-.21.056Zm73.143-1.6a.361.361,0,0,1-.189-.049.288.288,0,0,1-.1-.426c.378-.512.742-1.043,1.085-1.568a.392.392,0,0,1,.483-.117.3.3,0,0,1,.126.426c-.35.537-.7,1.074-1.1,1.593a.373.373,0,0,1-.308.142Zm-75.425-1.513a.361.361,0,0,1-.3-.154c-.35-.537-.7-1.087-1.015-1.636a.292.292,0,0,1,.147-.414.382.382,0,0,1,.476.13c.315.543.651,1.087.994,1.611a.272.272,0,0,1,.038.233.311.311,0,0,1-.164.186A.347.347,0,0,1,55.872,191.821Zm77.525-1.7a.356.356,0,0,1-.161-.037.318.318,0,0,1-.177-.178.271.271,0,0,1,.023-.236c.315-.543.623-1.1.91-1.654a.378.378,0,0,1,.462-.154.323.323,0,0,1,.186.171.27.27,0,0,1-.011.237c-.287.568-.6,1.13-.924,1.685A.358.358,0,0,1,133.4,190.123Zm-79.45-1.587a.371.371,0,0,1-.322-.179c-.287-.562-.574-1.136-.833-1.71a.3.3,0,0,1,.2-.4.367.367,0,0,1,.455.173c.259.562.532,1.13.819,1.679a.276.276,0,0,1,.014.238.327.327,0,0,1-.182.176A.407.407,0,0,1,53.947,188.537Zm81.2-1.79a.5.5,0,0,1-.133,0,.3.3,0,0,1-.2-.4,18.406,18.406,0,0,0,.7-1.729.371.371,0,0,1,.448-.191.3.3,0,0,1,.217.389c-.231.617-.476,1.179-.742,1.759a.355.355,0,0,1-.3.173ZM52.379,185.1a.358.358,0,0,1-.329-.2c-.231-.586-.448-1.185-.644-1.778a.318.318,0,0,1,.249-.4.374.374,0,0,1,.451.219c.2.586.413,1.173.637,1.753a.265.265,0,0,1-.01.234.326.326,0,0,1-.2.155A.4.4,0,0,1,52.379,185.1Zm84.133-1.852a.253.253,0,0,1-.1,0,.339.339,0,0,1-.212-.147.271.271,0,0,1-.026-.236c.189-.58.371-1.179.532-1.772a.354.354,0,0,1,.42-.228.345.345,0,0,1,.219.137.272.272,0,0,1,.04.234c-.161.617-.343,1.235-.539,1.8a.368.368,0,0,1-.336.2Zm-85.316-1.7a.352.352,0,0,1-.343-.235c-.168-.617-.315-1.235-.448-1.852a.312.312,0,0,1,.273-.364.357.357,0,0,1,.413.247c.133.617.28,1.2.441,1.8a.272.272,0,0,1-.04.234.345.345,0,0,1-.219.137Zm86.3-1.92h-.07a.349.349,0,0,1-.222-.129.274.274,0,0,1-.051-.229c.126-.617.238-1.235.336-1.815a.305.305,0,0,1,.139-.2.386.386,0,0,1,.26-.057.354.354,0,0,1,.229.118.276.276,0,0,1,.065.227c-.1.617-.21,1.235-.343,1.852A.352.352,0,0,1,137.492,179.634ZM50.4,177.918a.338.338,0,0,1-.343-.265q-.158-.926-.252-1.852a.323.323,0,0,1,.315-.34.343.343,0,0,1,.385.278q.105.926.252,1.852a.325.325,0,0,1-.3.346Zm87.682-1.951h0a.36.36,0,0,1-.237-.108.279.279,0,0,1-.078-.225c.063-.617.112-1.235.14-1.852a.353.353,0,0,1,.7,0,18.327,18.327,0,0,1-.147,1.852.282.282,0,0,1-.1.247A.371.371,0,0,1,138.08,175.967ZM50,174.227a.335.335,0,0,1-.35-.29c-.035-.617-.049-1.235-.049-1.852a.29.29,0,0,1,.1-.222.375.375,0,0,1,.25-.093h0a.338.338,0,0,1,.35.309c0,.617,0,1.235.049,1.852a.288.288,0,0,1-.093.222.372.372,0,0,1-.243.1Zm88.263-1.957a.331.331,0,0,1-.35-.309c0-.617,0-1.235-.049-1.852a.282.282,0,0,1,.088-.222.363.363,0,0,1,.241-.1.344.344,0,0,1,.371.29c.035.617.049,1.235.049,1.852a.3.3,0,0,1-.094.235.386.386,0,0,1-.256.1ZM50,170.529h0a.363.363,0,0,1-.241-.1.281.281,0,0,1-.088-.222,18.332,18.332,0,0,1,.147-1.852.346.346,0,0,1,.378-.284.366.366,0,0,1,.238.112.284.284,0,0,1,.077.228c-.063.617-.112,1.235-.14,1.852A.349.349,0,0,1,50,170.529Zm88.081-1.957a.342.342,0,0,1-.35-.284c-.063-.617-.147-1.235-.252-1.821a.324.324,0,0,1,.3-.352.344.344,0,0,1,.392.265c.1.617.189,1.235.259,1.852a.322.322,0,0,1-.315.333Zm-87.689-1.735h-.049a.324.324,0,0,1-.3-.352c.105-.617.217-1.235.35-1.852a.357.357,0,0,1,.413-.247.348.348,0,0,1,.225.131.273.273,0,0,1,.048.233c-.126.617-.245,1.2-.343,1.809A.336.336,0,0,1,50.391,166.837Zm87.066-1.932a.334.334,0,0,1-.343-.253c-.133-.617-.287-1.2-.448-1.79a.314.314,0,0,1,.252-.377.362.362,0,0,1,.427.228c.168.617.322,1.235.455,1.852a.279.279,0,0,1-.053.234.356.356,0,0,1-.227.13Zm-86.275-1.7H51.1a.315.315,0,0,1-.259-.377c.168-.617.35-1.235.546-1.8a.367.367,0,0,1,.434-.21.305.305,0,0,1,.238.383c-.2.617-.371,1.185-.539,1.778A.338.338,0,0,1,51.182,163.2Zm85.274-1.883a.347.347,0,0,1-.336-.222c-.2-.58-.413-1.173-.637-1.747a.28.28,0,0,1,.047-.321.377.377,0,0,1,.347-.107.334.334,0,0,1,.264.225c.231.586.448,1.185.651,1.778a.305.305,0,0,1-.238.383A.251.251,0,0,1,136.456,161.318Zm-84.091-1.673a.405.405,0,0,1-.119,0,.332.332,0,0,1-.2-.158.27.27,0,0,1-.01-.237c.224-.617.476-1.173.742-1.753a.339.339,0,0,1,.278-.215.373.373,0,0,1,.341.124.279.279,0,0,1,.025.325c-.252.562-.5,1.142-.7,1.722A.357.357,0,0,1,52.365,159.645Zm82.712-1.852a.359.359,0,0,1-.329-.2c-.259-.562-.532-1.13-.826-1.679a.3.3,0,0,1,.175-.414.37.37,0,0,1,.462.154c.294.562.574,1.136.84,1.71a.275.275,0,0,1,0,.237.334.334,0,0,1-.192.165.435.435,0,0,1-.126.049ZM53.926,156.2a.357.357,0,0,1-.14-.031.3.3,0,0,1-.175-.407c.294-.568.6-1.13.931-1.685a.379.379,0,0,1,.451-.1.294.294,0,0,1,.165.383c-.315.543-.623,1.105-.91,1.655A.355.355,0,0,1,53.926,156.2Zm79.394-1.741a.358.358,0,0,1-.308-.167q-.483-.815-1.008-1.611a.3.3,0,0,1,.133-.42.377.377,0,0,1,.476.111c.35.537.7,1.087,1.015,1.636a.271.271,0,0,1,.025.234.316.316,0,0,1-.172.179A.357.357,0,0,1,133.32,154.459ZM55.858,152.9a.363.363,0,0,1-.175-.043.311.311,0,0,1-.164-.186.272.272,0,0,1,.038-.233c.35-.537.7-1.074,1.106-1.593a.345.345,0,0,1,.219-.137.381.381,0,0,1,.264.044.288.288,0,0,1,.105.426c-.378.512-.742,1.037-1.085,1.568A.369.369,0,0,1,55.858,152.9Zm75.355-1.642a.356.356,0,0,1-.294-.142c-.378-.512-.77-1.025-1.169-1.519a.28.28,0,0,1-.057-.32.35.35,0,0,1,.3-.189.364.364,0,0,1,.325.151c.406.5.8,1.019,1.19,1.543a.288.288,0,0,1-.1.426A.408.408,0,0,1,131.213,151.261ZM58.14,149.786a.368.368,0,0,1-.2-.056.307.307,0,0,1-.144-.2.281.281,0,0,1,.06-.232c.406-.506.833-1.006,1.267-1.494a.364.364,0,0,1,.237-.117.383.383,0,0,1,.26.067.285.285,0,0,1,.056.432c-.427.475-.847.975-1.253,1.469A.358.358,0,0,1,58.14,149.786Zm70.63-1.537a.346.346,0,0,1-.273-.117c-.434-.475-.882-.951-1.33-1.414a.286.286,0,0,1-.1-.318.34.34,0,0,1,.283-.216.371.371,0,0,1,.343.133c.462.463.917.951,1.351,1.432a.278.278,0,0,1,.076.227.3.3,0,0,1-.132.206.342.342,0,0,1-.217.068Zm-68.033-1.377a.4.4,0,0,1-.231-.074.292.292,0,0,1-.121-.21.281.281,0,0,1,.086-.223c.462-.469.938-.938,1.4-1.383a.376.376,0,0,1,.49,0,.284.284,0,0,1,0,.438c-.476.438-.952.9-1.4,1.358a.357.357,0,0,1-.224.093Zm65.275-1.414a.358.358,0,0,1-.252-.1c-.476-.438-.973-.877-1.477-1.3a.284.284,0,0,1,0-.438.368.368,0,0,1,.49,0c.511.426,1.015.87,1.5,1.315a.284.284,0,0,1,0,.438.4.4,0,0,1-.259.08Zm-62.377-1.266a.353.353,0,0,1-.326-.192.283.283,0,0,1,.081-.339c.511-.426,1.036-.852,1.568-1.235a.383.383,0,0,1,.494.034.284.284,0,0,1-.038.435c-.518.4-1.036.815-1.54,1.235a.376.376,0,0,1-.238.062Zm59.339-1.29a.379.379,0,0,1-.231-.074c-.525-.4-1.064-.8-1.61-1.173a.3.3,0,0,1-.154-.294.319.319,0,0,1,.228-.253.385.385,0,0,1,.359.066c.553.383,1.1.784,1.631,1.185a.289.289,0,0,1,0,.438A.366.366,0,0,1,122.974,142.9Zm-56.168-1.136a.392.392,0,0,1-.28-.117.285.285,0,0,1,.063-.432c.546-.389,1.12-.766,1.687-1.124a.382.382,0,0,1,.49.068.286.286,0,0,1-.077.432c-.567.358-1.127.728-1.666,1.105a.4.4,0,0,1-.217.068Zm52.864-1.154a.384.384,0,0,1-.2-.056c-.567-.358-1.148-.7-1.729-1.031a.288.288,0,0,1-.105-.426.345.345,0,0,1,.219-.137.381.381,0,0,1,.264.044c.588.333,1.183.685,1.757,1.043a.291.291,0,0,1,.077.432A.351.351,0,0,1,119.67,140.612Zm-49.455-1a.371.371,0,0,1-.294-.142.288.288,0,0,1,.105-.426c.588-.333,1.2-.661,1.806-.975a.378.378,0,0,1,.48.114.291.291,0,0,1-.13.423c-.6.3-1.2.617-1.771.957a.37.37,0,0,1-.2.049Zm45.913-1.006a.388.388,0,0,1-.168-.037c-.6-.309-1.218-.617-1.834-.883a.293.293,0,0,1-.151-.417.375.375,0,0,1,.473-.133c.623.284,1.253.586,1.862.9a.294.294,0,0,1,.158.349.347.347,0,0,1-.34.226Zm-42.28-.852a.366.366,0,0,1-.315-.167.271.271,0,0,1-.023-.236.318.318,0,0,1,.177-.178c.616-.284,1.26-.562,1.9-.821a.37.37,0,0,1,.462.154.27.27,0,0,1,.014.235.321.321,0,0,1-.182.172c-.63.253-1.26.525-1.869.809a.389.389,0,0,1-.161.031Zm38.549-.846a.421.421,0,0,1-.147-.031c-.63-.253-1.274-.494-1.918-.722a.3.3,0,0,1-.2-.4.367.367,0,0,1,.455-.173c.651.228,1.309.482,1.946.735a.3.3,0,0,1,.175.414.348.348,0,0,1-.315.179Zm-34.741-.7a.361.361,0,0,1-.329-.191.275.275,0,0,1,0-.237.334.334,0,0,1,.192-.165c.651-.235,1.316-.451,1.974-.654a.371.371,0,0,1,.448.191.3.3,0,0,1-.217.389c-.651.2-1.3.42-1.946.648Zm30.8-.679a.355.355,0,0,1-.112,0c-.658-.2-1.323-.389-1.988-.562a.339.339,0,0,1-.212-.147.271.271,0,0,1-.026-.236.359.359,0,0,1,.434-.21c.7.173,1.358.364,2.023.568a.319.319,0,0,1,.291.361.353.353,0,0,1-.41.256Zm-26.873-.537a.339.339,0,0,1-.329-.222.3.3,0,0,1,.231-.383c.7-.173,1.4-.34,2.044-.482a.391.391,0,0,1,.266.033.3.3,0,0,1-.1.566c-.7.142-1.351.3-2.009.475a.305.305,0,0,1-.077.012Zm22.841-.506h-.084c-.7-.148-1.358-.278-2.037-.389a.319.319,0,0,1-.28-.364.351.351,0,0,1,.413-.241c.7.111,1.4.247,2.1.389a.314.314,0,0,1,.252.377.334.334,0,0,1-.308.228Zm-18.76-.37a.348.348,0,0,1-.343-.253.314.314,0,0,1,.28-.358c.7-.117,1.4-.222,2.1-.309a.349.349,0,0,1,.4.265.321.321,0,0,1-.3.352c-.7.086-1.4.185-2.051.3ZM100.3,133.8h-.021c-.7-.086-1.4-.154-2.1-.216a.324.324,0,0,1-.318-.336.342.342,0,0,1,.382-.281c.7.056,1.4.13,2.1.216a.325.325,0,0,1,.326.33.339.339,0,0,1-.374.287Zm-10.5-.21a.344.344,0,0,1-.35-.278.334.334,0,0,1,.315-.34q1.05-.083,2.1-.13a.372.372,0,0,1,.251.077.288.288,0,0,1,.025.436.37.37,0,0,1-.242.1C91.2,133.457,90.5,133.531,89.8,133.586Zm6.3-.136h0c-.7-.031-1.344-.043-2.023-.043a.362.362,0,0,1-.378-.309.27.27,0,0,1,.084-.213.349.349,0,0,1,.231-.1v.309l.063-.309c.7,0,1.4,0,2.058.043a.311.311,0,1,1,0,.617Z" transform="translate(-48.944 -115.282)"/><path class="f" d="M124.988,199.658h-8.106l-3.22-7.408H98.92l-3.045,7.408H88l14.364-32.528h7.875ZM111.275,186.8,106.2,174.717,101.209,186.8Z" transform="translate(-60.464 -128.422)"/><ellipse class="i" cx="37.513" cy="33.084" rx="37.513" ry="33.084" transform="translate(103.423 6.18)"/><ellipse class="k" cx="37.513" cy="33.084" rx="37.513" ry="33.084" transform="translate(103.423 6.18)"/><path class="i" d="M230.929,182.945c-.7,0-1.4,0-2.1-.043a.371.371,0,0,1-.243-.1.288.288,0,0,1-.093-.222.343.343,0,0,1,.371-.3c.7.031,1.4.043,2.1.043h.126a.311.311,0,1,1,0,.617Zm2.226-.049a.334.334,0,0,1-.35-.29.288.288,0,0,1,.092-.222.372.372,0,0,1,.243-.1c.7,0,1.4-.08,2.1-.136a.342.342,0,0,1,.382.281.324.324,0,0,1-.319.336c-.7.062-1.4.1-2.1.136Zm-6.419-.123h0q-1.05-.083-2.1-.222a.321.321,0,0,1-.3-.352.349.349,0,0,1,.4-.265c.7.086,1.4.161,2.1.216a.328.328,0,0,1,.315.34.3.3,0,0,1-.136.227.387.387,0,0,1-.284.057Zm10.6-.235a.338.338,0,0,1-.343-.265.317.317,0,0,1,.294-.346c.7-.093,1.4-.191,2.058-.309a.373.373,0,0,1,.262.043.3.3,0,0,1,.144.2.274.274,0,0,1-.048.233.349.349,0,0,1-.225.131q-1.05.176-2.1.315Zm-14.756-.29h-.049c-.7-.117-1.4-.247-2.1-.4a.309.309,0,0,1-.259-.37.314.314,0,0,1,.159-.193.391.391,0,0,1,.268-.035c.7.142,1.351.278,2.037.389a.312.312,0,0,1,.273.364A.335.335,0,0,1,222.578,182.247Zm18.9-.42a.337.337,0,0,1-.336-.235.266.266,0,0,1,.035-.233.337.337,0,0,1,.217-.137c.7-.148,1.351-.309,2.016-.482a.372.372,0,0,1,.448.222.318.318,0,0,1-.252.4c-.7.173-1.358.34-2.044.488Zm-22.96-.451h-.1c-.7-.173-1.358-.37-2.023-.574a.3.3,0,0,1-.217-.389.371.371,0,0,1,.448-.191c.658.2,1.323.389,1.988.562a.305.305,0,0,1,.238.383.345.345,0,0,1-.357.21Zm26.985-.617a.343.343,0,0,1-.329-.2.307.307,0,0,1,.217-.4c.651-.2,1.3-.42,1.946-.648a.394.394,0,0,1,.268,0,.331.331,0,0,1,.187.17.275.275,0,0,1,0,.236.334.334,0,0,1-.192.165c-.651.235-1.316.457-1.974.661a.391.391,0,0,1-.14.025Zm-30.961-.617a.34.34,0,0,1-.133,0c-.651-.228-1.309-.482-1.946-.735a.306.306,0,0,1-.175-.414.375.375,0,0,1,.441-.13c.63.253,1.274.5,1.918.722a.3.3,0,0,1,.189.4.35.35,0,0,1-.315.173Zm34.846-.772a.348.348,0,0,1-.315-.179.276.276,0,0,1-.014-.238.327.327,0,0,1,.182-.176c.63-.253,1.253-.525,1.869-.8a.39.39,0,0,1,.373-.012.3.3,0,0,1,.173.292.317.317,0,0,1-.225.263c-.623.29-1.26.562-1.9.821a.413.413,0,0,1-.168.049Zm-38.668-.778a.358.358,0,0,1-.161-.031c-.63-.284-1.253-.587-1.862-.9a.286.286,0,0,1-.1-.4.375.375,0,0,1,.447-.126c.6.3,1.218.617,1.834.883a.292.292,0,0,1,.147.414.341.341,0,0,1-.329.185Zm42.392-.932a.378.378,0,0,1-.308-.148.3.3,0,0,1,.126-.426c.6-.3,1.2-.617,1.778-.963a.378.378,0,0,1,.468.1.286.286,0,0,1-.09.417c-.588.34-1.2.667-1.8.982a.437.437,0,0,1-.2.056Zm-46.032-.926a.346.346,0,0,1-.189-.049c-.6-.333-1.183-.691-1.757-1.049a.286.286,0,0,1-.077-.432.382.382,0,0,1,.49-.068c.56.352,1.141.7,1.722,1.031a.288.288,0,0,1,.1.426.368.368,0,0,1-.315.16Zm49.553-1.087a.376.376,0,0,1-.287-.123.291.291,0,0,1,.077-.432c.567-.358,1.127-.728,1.666-1.105a.385.385,0,0,1,.359-.066.319.319,0,0,1,.228.253.3.3,0,0,1-.154.294c-.553.383-1.12.766-1.687,1.124a.393.393,0,0,1-.224.074Zm-53-1.05a.372.372,0,0,1-.217-.068c-.546-.383-1.1-.784-1.631-1.185a.286.286,0,0,1-.035-.438.386.386,0,0,1,.5-.031c.518.4,1.064.8,1.6,1.173a.287.287,0,0,1,.112.342A.35.35,0,0,1,203.629,174.6Zm56.266-1.235a.357.357,0,0,1-.266-.1.281.281,0,0,1-.086-.223.292.292,0,0,1,.121-.21c.518-.4,1.036-.821,1.54-1.235a.385.385,0,0,1,.475.025.283.283,0,0,1,.008.42c-.511.432-1.036.852-1.561,1.235a.4.4,0,0,1-.224.1Zm-59.437-1.2a.367.367,0,0,1-.238-.086c-.511-.426-1.015-.87-1.5-1.321a.284.284,0,0,1,0-.438.376.376,0,0,1,.49,0c.476.438.973.877,1.477,1.3a.278.278,0,0,1,0,.432.332.332,0,0,1-.224.117Zm62.475-1.327a.362.362,0,0,1-.238-.08.284.284,0,0,1,0-.438c.476-.444.945-.9,1.4-1.364a.36.36,0,0,1,.238-.107.372.372,0,0,1,.252.076.289.289,0,0,1,.035.438c-.455.469-.938.932-1.4,1.383A.386.386,0,0,1,262.933,170.838Zm-65.366-1.315a.363.363,0,0,1-.266-.111c-.455-.463-.91-.951-1.344-1.438a.285.285,0,0,1,.056-.432.383.383,0,0,1,.49.049c.427.482.875.957,1.33,1.42a.281.281,0,0,1,.086.223.292.292,0,0,1-.121.21.371.371,0,0,1-.231.049Zm68.11-1.488a.374.374,0,0,1-.21-.062.291.291,0,0,1-.063-.438c.427-.475.847-.975,1.246-1.469a.382.382,0,0,1,.49-.074.287.287,0,0,1,.084.432c-.406.506-.833,1.006-1.267,1.494a.379.379,0,0,1-.28.086Zm-70.7-1.42a.381.381,0,0,1-.287-.13c-.406-.506-.8-1.025-1.183-1.543a.279.279,0,0,1-.051-.236.312.312,0,0,1,.156-.2.387.387,0,0,1,.483.093c.371.512.763,1.025,1.169,1.525a.275.275,0,0,1,.06.229.3.3,0,0,1-.144.2.36.36,0,0,1-.21.031Zm73.143-1.6a.361.361,0,0,1-.189-.049.288.288,0,0,1-.1-.426c.378-.512.742-1.043,1.085-1.568a.378.378,0,0,1,.48-.114.291.291,0,0,1,.129.423c-.35.537-.7,1.074-1.1,1.593a.382.382,0,0,1-.308.111ZM192.7,163.5a.361.361,0,0,1-.3-.154c-.35-.537-.7-1.087-1.015-1.636a.292.292,0,0,1,.147-.414.382.382,0,0,1,.476.13c.315.543.651,1.08,1,1.611a.3.3,0,0,1-.133.42.354.354,0,0,1-.182.012Zm77.525-1.7a.356.356,0,0,1-.161-.037.318.318,0,0,1-.177-.178.271.271,0,0,1,.023-.236c.315-.543.623-1.1.91-1.654a.37.37,0,0,1,.462-.154.323.323,0,0,1,.186.171.27.27,0,0,1-.011.237c-.287.568-.6,1.13-.924,1.685a.368.368,0,0,1-.315.136Zm-79.45-1.587a.371.371,0,0,1-.322-.179c-.287-.562-.574-1.142-.833-1.71a.3.3,0,0,1,.193-.4.369.369,0,0,1,.458.17q.392.852.819,1.685a.27.27,0,0,1,.013.235.321.321,0,0,1-.181.172.428.428,0,0,1-.154,0Zm81.2-1.79a.34.34,0,0,1-.133,0,.3.3,0,0,1-.2-.4c.259-.568.5-1.148.7-1.722a.371.371,0,0,1,.448-.191.3.3,0,0,1,.217.389c-.231.586-.476,1.179-.742,1.753a.358.358,0,0,1-.308.142Zm-82.761-1.642a.349.349,0,0,1-.329-.21c-.231-.586-.448-1.179-.644-1.778a.3.3,0,0,1,.231-.383.367.367,0,0,1,.441.21c.189.586.406,1.173.63,1.747a.27.27,0,0,1-.01.237.332.332,0,0,1-.2.158.4.4,0,0,1-.133-.012Zm84.133-1.852a.253.253,0,0,1-.1,0,.34.34,0,0,1-.212-.147.271.271,0,0,1-.026-.236c.189-.617.371-1.179.532-1.772a.354.354,0,0,1,.42-.228.345.345,0,0,1,.219.137.272.272,0,0,1,.04.234c-.161.617-.343,1.235-.539,1.8a.372.372,0,0,1-.35.16Zm-85.33-1.735a.345.345,0,0,1-.343-.235c-.168-.617-.315-1.235-.448-1.852a.319.319,0,0,1,.284-.367.356.356,0,0,1,.417.25c.133.617.28,1.235.441,1.8a.308.308,0,0,1-.252.37Zm86.31-1.914h-.07a.349.349,0,0,1-.222-.129.274.274,0,0,1-.051-.23c.126-.617.238-1.235.336-1.815a.352.352,0,0,1,.4-.265.323.323,0,0,1,.294.352c-.1.617-.21,1.235-.343,1.852A.352.352,0,0,1,274.329,151.287Zm-87.094-1.722a.338.338,0,0,1-.343-.265q-.157-.926-.252-1.852a.324.324,0,0,1,.319-.336.342.342,0,0,1,.381.281c.07.617.154,1.235.252,1.821a.282.282,0,0,1-.067.232.362.362,0,0,1-.234.12Zm87.682-1.945h-.035a.366.366,0,0,1-.238-.112.284.284,0,0,1-.077-.228c.063-.617.112-1.235.14-1.852a.353.353,0,0,1,.7,0,18.335,18.335,0,0,1-.147,1.852.28.28,0,0,1-.089.243.367.367,0,0,1-.268.1Zm-88.088-1.741a.341.341,0,0,1-.35-.29c-.035-.617-.049-1.235-.049-1.852a.285.285,0,0,1,.1-.22.368.368,0,0,1,.25-.089.331.331,0,0,1,.35.309c0,.617,0,1.235.049,1.852a.326.326,0,0,1-.329.321Zm88.263-1.957a.338.338,0,0,1-.35-.309c0-.617,0-1.235-.049-1.852a.282.282,0,0,1,.088-.222.363.363,0,0,1,.241-.1.344.344,0,0,1,.371.29c.035.617.049,1.235.049,1.852a.36.36,0,0,1-.357.34Zm-88.263-1.747h0a.364.364,0,0,1-.241-.1.282.282,0,0,1-.088-.222,18.335,18.335,0,0,1,.147-1.852.343.343,0,0,1,.385-.278.323.323,0,0,1,.315.34q-.1.926-.147,1.852a.35.35,0,0,1-.371.259Zm88.06-1.957a.337.337,0,0,1-.35-.278c-.063-.617-.147-1.235-.252-1.821a.32.32,0,0,1,.3-.355.35.35,0,0,1,.4.262c.105.617.189,1.235.259,1.852a.322.322,0,0,1-.315.333Zm-87.668-1.729h-.049a.318.318,0,0,1-.3-.346c.1-.617.217-1.235.35-1.852a.357.357,0,0,1,.413-.247.342.342,0,0,1,.224.127.268.268,0,0,1,.049.231c-.126.617-.245,1.235-.343,1.815a.331.331,0,0,1-.35.272Zm87.066-1.932a.334.334,0,0,1-.343-.253c-.133-.617-.287-1.2-.448-1.79a.318.318,0,0,1,.266-.383.365.365,0,0,1,.434.235c.168.617.322,1.235.455,1.852a.319.319,0,0,1-.28.364Zm-86.275-1.7h-.084a.309.309,0,0,1-.259-.37c.168-.617.35-1.235.546-1.8a.372.372,0,0,1,.448-.222.318.318,0,0,1,.252.4c-.189.617-.371,1.185-.539,1.778a.351.351,0,0,1-.371.222Zm85.274-1.9a.354.354,0,0,1-.336-.222c-.2-.58-.413-1.173-.637-1.747a.28.28,0,0,1,.047-.321.377.377,0,0,1,.347-.107.334.334,0,0,1,.264.225c.231.586.455,1.185.651,1.778a.3.3,0,0,1-.238.383Zm-84.091-1.667h-.112a.34.34,0,0,1-.2-.158.276.276,0,0,1-.015-.237c.231-.587.476-1.179.742-1.753a.336.336,0,0,1,.275-.226.373.373,0,0,1,.349.124.279.279,0,0,1,.021.331c-.252.568-.5,1.148-.7,1.729a.358.358,0,0,1-.364.191Zm82.712-1.852a.354.354,0,0,1-.329-.191c-.259-.562-.532-1.13-.826-1.685a.3.3,0,0,1,.175-.407.385.385,0,0,1,.268-.009.328.328,0,0,1,.194.164c.294.562.574,1.136.84,1.71a.275.275,0,0,1,0,.236.334.334,0,0,1-.192.165.425.425,0,0,1-.133.056Zm-81.144-1.617a.412.412,0,0,1-.147,0,.3.3,0,0,1-.175-.407c.294-.568.609-1.13.931-1.685a.375.375,0,0,1,.473-.133.293.293,0,0,1,.151.417c-.322.543-.63,1.1-.917,1.654a.342.342,0,0,1-.322.179Zm79.366-1.716a.352.352,0,0,1-.308-.16c-.322-.543-.658-1.087-1-1.611a.279.279,0,0,1-.026-.326.36.36,0,0,1,.32-.164.354.354,0,0,1,.308.181c.35.537.7,1.087,1.022,1.63a.3.3,0,0,1-.154.42A.358.358,0,0,1,270.129,126.105Zm-77.448-1.568a.456.456,0,0,1-.175-.043.289.289,0,0,1-.126-.42c.357-.537.7-1.074,1.106-1.6a.362.362,0,0,1,.315-.156.356.356,0,0,1,.3.172.279.279,0,0,1-.03.317c-.371.519-.742,1.043-1.085,1.574A.369.369,0,0,1,192.681,124.537Zm75.348-1.624a.386.386,0,0,1-.294-.142c-.378-.512-.77-1.025-1.169-1.519a.291.291,0,0,1,.077-.432.387.387,0,0,1,.262-.053.358.358,0,0,1,.228.127c.406.5.812,1.019,1.19,1.537a.288.288,0,0,1-.105.426A.351.351,0,0,1,268.029,122.913Zm-73.066-1.463a.343.343,0,0,1-.2-.062.3.3,0,0,1-.144-.2.275.275,0,0,1,.06-.229c.406-.506.833-1.012,1.267-1.494a.37.37,0,0,1,.329-.133.346.346,0,0,1,.287.2.281.281,0,0,1-.063.315c-.427.482-.847.975-1.253,1.475A.366.366,0,0,1,194.963,121.45Zm70.63-1.537a.354.354,0,0,1-.273-.117c-.434-.475-.875-.957-1.33-1.414a.283.283,0,0,1-.081-.308.339.339,0,0,1,.269-.209.376.376,0,0,1,.336.11c.462.469.917.951,1.351,1.438a.278.278,0,0,1,.076.227.3.3,0,0,1-.132.206.346.346,0,0,1-.217.056Zm-68.033-1.377a.4.4,0,0,1-.231-.074.289.289,0,0,1-.035-.438c.462-.463.938-.932,1.4-1.377a.376.376,0,0,1,.49,0,.284.284,0,0,1,0,.438c-.476.438-.952.9-1.4,1.358a.391.391,0,0,1-.224.08Zm65.275-1.408a.388.388,0,0,1-.252-.1c-.476-.438-.973-.877-1.477-1.3a.284.284,0,0,1,0-.438.376.376,0,0,1,.49,0c.511.432,1.015.87,1.5,1.321a.284.284,0,0,1,0,.438A.4.4,0,0,1,262.835,117.129Zm-62.377-1.235a.357.357,0,0,1-.252-.1.278.278,0,0,1,0-.432c.511-.432,1.036-.852,1.568-1.235a.384.384,0,0,1,.35-.071.325.325,0,0,1,.237.238.29.29,0,0,1-.125.3c-.525.4-1.043.821-1.547,1.235a.386.386,0,0,1-.231.019ZM259.8,114.6a.379.379,0,0,1-.231-.074c-.525-.4-1.064-.8-1.61-1.173a.286.286,0,0,1-.059-.435.384.384,0,0,1,.493-.052c.553.389,1.1.784,1.631,1.191a.3.3,0,0,1,.121.213.287.287,0,0,1-.086.226.371.371,0,0,1-.259.056Zm-56.168-1.179a.346.346,0,0,1-.273-.117.278.278,0,0,1-.076-.227.3.3,0,0,1,.132-.206c.553-.383,1.12-.759,1.687-1.117a.382.382,0,0,1,.49.068.286.286,0,0,1-.077.432c-.567.352-1.127.728-1.666,1.105a.382.382,0,0,1-.217.062Zm52.864-1.148a.4.4,0,0,1-.2-.056c-.567-.358-1.148-.7-1.729-1.031a.293.293,0,0,1-.105-.432.379.379,0,0,1,.483-.093c.6.34,1.183.691,1.757,1.049a.291.291,0,0,1,.077.432.354.354,0,0,1-.28.117Zm-49.448-1a.349.349,0,0,1-.341-.219.292.292,0,0,1,.145-.349c.6-.34,1.2-.667,1.806-.975a.375.375,0,0,1,.447.126.286.286,0,0,1-.1.4c-.6.309-1.2.617-1.771.963a.436.436,0,0,1-.189.037Zm45.913-1.006a.347.347,0,0,1-.175-.043c-.6-.3-1.218-.617-1.834-.883a.288.288,0,0,1-.113-.4.372.372,0,0,1,.434-.146c.623.284,1.253.58,1.862.9a.294.294,0,0,1,.159.346A.345.345,0,0,1,252.958,110.27Zm-42.287-.852a.366.366,0,0,1-.315-.167.292.292,0,0,1,.154-.414c.623-.284,1.26-.562,1.9-.821a.37.37,0,0,1,.462.154.27.27,0,0,1,.014.235.321.321,0,0,1-.182.172c-.63.253-1.26.525-1.869.8a.415.415,0,0,1-.161.025Zm38.549-.846a.42.42,0,0,1-.147-.031c-.63-.253-1.274-.5-1.918-.722a.334.334,0,0,1-.192-.165.275.275,0,0,1,0-.236.33.33,0,0,1,.187-.17.393.393,0,0,1,.268,0c.651.228,1.309.475,1.946.735a.319.319,0,0,1,.28.37.358.358,0,0,1-.42.247Zm-34.741-.7a.361.361,0,0,1-.329-.191.275.275,0,0,1,0-.236.334.334,0,0,1,.192-.165c.651-.235,1.316-.451,1.981-.654a.385.385,0,0,1,.264.011.319.319,0,0,1,.177.174.307.307,0,0,1-.217.4c-.651.2-1.3.42-1.946.617A.292.292,0,0,1,214.479,107.869Zm30.835-.685h-.119c-.651-.2-1.323-.389-1.988-.562a.318.318,0,0,1-.252-.4A.372.372,0,0,1,243.4,106c.7.173,1.358.364,2.023.568a.32.32,0,0,1,.294.358.352.352,0,0,1-.406.259Zm-26.873-.549a.34.34,0,0,1-.336-.222.276.276,0,0,1,.018-.239.341.341,0,0,1,.206-.156c.7-.173,1.4-.34,2.044-.488a.362.362,0,0,1,.427.228.309.309,0,0,1-.259.37c-.7.148-1.344.309-2.009.482Zm22.834-.506h-.084c-.7-.142-1.358-.272-2.037-.383a.319.319,0,0,1-.283-.367.356.356,0,0,1,.417-.25c.7.117,1.4.253,2.1.4a.322.322,0,0,1,.308.346.346.346,0,0,1-.392.272Zm-18.76-.37a.348.348,0,0,1-.343-.253.314.314,0,0,1,.28-.358q1.05-.176,2.1-.315a.352.352,0,0,1,.4.265.318.318,0,0,1-.3.346c-.7.086-1.4.191-2.051.309Zm14.637-.327H237.1c-.7-.086-1.4-.161-2.1-.216a.36.36,0,0,1-.237-.108.279.279,0,0,1-.078-.225.293.293,0,0,1,.122-.209.375.375,0,0,1,.256-.068c.7.056,1.4.13,2.1.216a.325.325,0,0,1,.326.33.339.339,0,0,1-.374.287Zm-10.5-.2a.311.311,0,1,1,0-.617c.7-.056,1.4-.1,2.1-.136a.378.378,0,0,1,.252.082.3.3,0,0,1,.112.215.282.282,0,0,1-.088.222.364.364,0,0,1-.241.1c-.7,0-1.4.074-2.1.136Zm6.3-.136h0c-.7,0-1.344-.043-2.023-.043a.362.362,0,0,1-.378-.309.263.263,0,0,1,.081-.215.342.342,0,0,1,.234-.094h.063c.7,0,1.4,0,2.058.043a.363.363,0,0,1,.241.1.281.281,0,0,1,.088.222.331.331,0,0,1-.35.309Z" transform="translate(-89.993 -104.43)"/><path class="f" d="M227.93,138.775h14.749a49.082,49.082,0,0,1,6.531.321,10.432,10.432,0,0,1,3.85,1.346,8.819,8.819,0,0,1,2.8,2.716,6.694,6.694,0,0,1,1.134,3.8,7.735,7.735,0,0,1-5.18,7.056,9.951,9.951,0,0,1,5.18,2.951,7.266,7.266,0,0,1,1.813,4.908,8.8,8.8,0,0,1-1.169,4.321,9.1,9.1,0,0,1-3.2,3.346,11.44,11.44,0,0,1-4.991,1.543q-1.869.173-8.981.222H227.93Zm7.448,5.414v7.525h4.9c2.9,0,4.7-.037,5.411-.111a5.316,5.316,0,0,0,3.01-1.167,3.216,3.216,0,0,0,1.092-2.544,3.3,3.3,0,0,0-.945-2.469,4.542,4.542,0,0,0-2.8-1.142q-1.106-.111-6.363-.111Zm0,12.934v8.7h6.895a37.773,37.773,0,0,0,5.1-.2,4.848,4.848,0,0,0,2.709-1.3,3.723,3.723,0,0,0,1.043-2.766,3.861,3.861,0,0,0-.8-2.469A4.594,4.594,0,0,0,248,157.6a28.712,28.712,0,0,0-6.608-.469Z" transform="translate(-102.443 -117.569)"/><path class="i" d="M34-1.583c20.36.865,37.565,16.668,38.43,35.3s-14.939,33.031-35.3,32.166S-.437,49.213-1.3,30.583,13.637-2.448,34-1.583Z" transform="translate(191.548 40.674) rotate(-22.5)"/><path class="j" d="M34-1.583c20.36.865,37.565,16.668,38.43,35.3s-14.939,33.031-35.3,32.166S-.437,49.213-1.3,30.583,13.637-2.448,34-1.583Z" transform="translate(191.548 40.674) rotate(-22.5)"/><path class="i" d="M367.749,211.327c-.7,0-1.4,0-2.1-.043a.371.371,0,0,1-.243-.1.288.288,0,0,1-.092-.222.3.3,0,0,1,.112-.215.378.378,0,0,1,.252-.082c.7.031,1.4.043,2.1.043h.1a.311.311,0,1,1,0,.617Zm2.226-.049a.311.311,0,1,1,0-.617c.7-.031,1.4-.074,2.1-.136a.348.348,0,0,1,.385.278.284.284,0,0,1-.077.228.366.366,0,0,1-.238.112c-.7.062-1.4.1-2.1.136Zm-6.419-.123h-.035q-1.05-.093-2.1-.222a.321.321,0,0,1-.3-.352.349.349,0,0,1,.4-.265c.7.086,1.4.161,2.065.216a.311.311,0,1,1,0,.617Zm10.619-.259a.338.338,0,0,1-.343-.265.323.323,0,0,1,.294-.352c.7-.086,1.4-.191,2.051-.309a.358.358,0,0,1,.42.247.319.319,0,0,1-.28.37c-.7.117-1.4.222-2.1.309Zm-14.756-.29h-.07c-.7-.117-1.4-.253-2.1-.4a.351.351,0,0,1-.219-.14.278.278,0,0,1-.04-.236.308.308,0,0,1,.157-.189.383.383,0,0,1,.263-.033c.7.142,1.358.272,2.037.389a.314.314,0,0,1,.28.358.347.347,0,0,1-.329.247Zm18.9-.42a.345.345,0,0,1-.343-.235.315.315,0,0,1,.259-.377c.7-.142,1.351-.3,2.009-.482a.359.359,0,0,1,.434.21.3.3,0,0,1-.231.383c-.7.179-1.365.346-2.044.488Zm-22.96-.451h-.1c-.7-.179-1.358-.37-2.023-.574a.33.33,0,0,1-.255-.233.289.289,0,0,1,.122-.306.388.388,0,0,1,.364-.041c.651.2,1.323.389,1.988.562a.3.3,0,0,1,.238.383.369.369,0,0,1-.378.21Zm26.985-.617a.352.352,0,0,1-.406-.259.32.32,0,0,1,.294-.358c.644-.2,1.3-.42,1.939-.648a.369.369,0,0,1,.458.17.3.3,0,0,1-.192.4c-.651.228-1.316.451-1.974.654a.388.388,0,0,1-.161.049Zm-30.961-.617a.46.46,0,0,1-.133,0c-.651-.235-1.309-.482-1.946-.741a.323.323,0,0,1-.186-.171.27.27,0,0,1,.011-.237.37.37,0,0,1,.462-.154c.63.259,1.274.5,1.918.728a.334.334,0,0,1,.192.165.275.275,0,0,1,0,.236.352.352,0,0,1-.364.185Zm34.846-.766a.346.346,0,0,1-.315-.185.27.27,0,0,1-.014-.235.321.321,0,0,1,.182-.172c.63-.253,1.253-.525,1.869-.809a.375.375,0,0,1,.473.133.293.293,0,0,1-.15.417c-.623.284-1.26.562-1.9.821a.418.418,0,0,1-.189.043Zm-38.675-.778a.379.379,0,0,1-.161-.037c-.623-.284-1.246-.586-1.855-.9a.3.3,0,0,1-.126-.426.377.377,0,0,1,.476-.111c.6.309,1.211.617,1.827.889a.293.293,0,0,1,.154.414.368.368,0,0,1-.357.179Zm42.392-.932a.345.345,0,0,1-.334-.229.294.294,0,0,1,.159-.346c.595-.309,1.19-.617,1.771-.963a.387.387,0,0,1,.49.093.288.288,0,0,1-.1.426c-.588.34-1.2.667-1.806.975a.346.346,0,0,1-.217.056Zm-46.025-.926a.44.44,0,0,1-.2-.049c-.588-.34-1.176-.691-1.75-1.049a.292.292,0,0,1-.084-.432.358.358,0,0,1,.228-.127.387.387,0,0,1,.263.053c.567.358,1.148.7,1.729,1.037a.288.288,0,0,1,.1.426.372.372,0,0,1-.336.154Zm49.546-1.087a.351.351,0,0,1-.28-.13.291.291,0,0,1,.077-.432c.56-.352,1.12-.722,1.666-1.105a.382.382,0,0,1,.49.056.285.285,0,0,1-.056.432c-.553.383-1.12.759-1.694,1.124a.383.383,0,0,1-.245.068ZM340.5,202.943a.388.388,0,0,1-.217-.068c-.553-.383-1.1-.784-1.631-1.191a.292.292,0,0,1-.121-.21.281.281,0,0,1,.086-.223.392.392,0,0,1,.5,0c.518.4,1.057.79,1.6,1.173a.3.3,0,0,1,.132.206.278.278,0,0,1-.076.227.385.385,0,0,1-.315.1Zm56.266-1.235a.387.387,0,0,1-.266-.1.289.289,0,0,1,.035-.438c.518-.4,1.036-.815,1.533-1.235a.384.384,0,0,1,.5,0,.284.284,0,0,1,0,.438c-.511.426-1.036.852-1.568,1.235a.359.359,0,0,1-.273.123Zm-59.479-1.185a.386.386,0,0,1-.245-.08c-.5-.432-1.008-.877-1.5-1.321a.285.285,0,0,1,.014-.438.386.386,0,0,1,.5.012c.476.438.973.877,1.47,1.3a.283.283,0,0,1,.083.336A.352.352,0,0,1,337.285,200.523Zm62.468-1.358a.392.392,0,0,1-.245-.086.273.273,0,0,1,0-.432c.476-.445.945-.9,1.4-1.364a.391.391,0,0,1,.5-.031.292.292,0,0,1,.121.21.281.281,0,0,1-.086.223c-.455.469-.938.938-1.4,1.383A.361.361,0,0,1,399.753,199.165Zm-65.366-1.321a.387.387,0,0,1-.266-.1c-.462-.469-.917-.951-1.351-1.438a.286.286,0,0,1,.06-.435.384.384,0,0,1,.493.052c.427.482.875.957,1.33,1.414a.289.289,0,0,1-.035.438.41.41,0,0,1-.231.074Zm68.11-1.482a.388.388,0,0,1-.217-.068.285.285,0,0,1-.056-.432c.427-.482.847-.975,1.246-1.475a.389.389,0,0,1,.49-.068.286.286,0,0,1,.084.426c-.413.506-.833,1.012-1.267,1.5a.392.392,0,0,1-.28.117Zm-70.7-1.426a.359.359,0,0,1-.287-.13c-.406-.5-.8-1.019-1.19-1.543a.288.288,0,0,1,.115-.413.381.381,0,0,1,.473.079c.378.512.77,1.025,1.169,1.519a.291.291,0,0,1-.077.432.4.4,0,0,1-.21.056Zm73.143-1.593a.407.407,0,0,1-.189-.049.288.288,0,0,1-.1-.426c.378-.519.742-1.043,1.085-1.574a.34.34,0,0,1,.211-.144.383.383,0,0,1,.265.033.3.3,0,0,1,.133.42c-.35.537-.7,1.074-1.106,1.6a.349.349,0,0,1-.3.142Zm-75.425-1.512a.361.361,0,0,1-.3-.154c-.357-.537-.7-1.087-1.022-1.636a.3.3,0,0,1,.154-.42.373.373,0,0,1,.469.136c.322.537.658,1.08,1,1.605a.3.3,0,0,1-.126.426A.455.455,0,0,1,329.515,191.831Zm77.518-1.7a.356.356,0,0,1-.3-.146.272.272,0,0,1-.005-.3c.315-.543.623-1.1.91-1.654a.37.37,0,0,1,.462-.154.306.306,0,0,1,.175.414c-.294.562-.6,1.13-.924,1.679a.366.366,0,0,1-.315.167Zm-79.443-1.58a.355.355,0,0,1-.322-.185c-.294-.562-.574-1.136-.833-1.71a.27.27,0,0,1,0-.238.329.329,0,0,1,.2-.164.394.394,0,0,1,.268,0,.331.331,0,0,1,.187.17c.252.562.532,1.13.819,1.685a.3.3,0,0,1-.175.407A.38.38,0,0,1,327.59,188.547Zm81.2-1.79a.46.46,0,0,1-.133,0,.334.334,0,0,1-.192-.165.275.275,0,0,1,0-.236,18.425,18.425,0,0,0,.7-1.729.365.365,0,0,1,.448-.191.3.3,0,0,1,.217.4c-.231.617-.483,1.179-.742,1.753a.355.355,0,0,1-.3.173Zm-82.761-1.642a.342.342,0,0,1-.329-.21c-.231-.587-.448-1.185-.651-1.778a.305.305,0,0,1,.238-.383.384.384,0,0,1,.268.023.312.312,0,0,1,.166.187c.2.58.413,1.173.637,1.747a.307.307,0,0,1-.217.4.353.353,0,0,1-.119.019Zm84.126-1.852h-.1a.311.311,0,0,1-.238-.383c.2-.617.378-1.185.539-1.778a.354.354,0,0,1,.42-.228.351.351,0,0,1,.219.14.278.278,0,0,1,.04.236c-.161.617-.343,1.235-.546,1.8a.348.348,0,0,1-.343.191Zm-85.316-1.685a.337.337,0,0,1-.336-.235c-.168-.617-.322-1.235-.455-1.852a.314.314,0,0,1,.28-.358.359.359,0,0,1,.413.241c.126.617.28,1.2.441,1.8a.315.315,0,0,1-.259.377Zm86.3-1.914h-.07a.319.319,0,0,1-.28-.364c.133-.617.245-1.235.343-1.809a.349.349,0,0,1,.4-.265.321.321,0,0,1,.3.352c-.1.617-.217,1.235-.343,1.852a.358.358,0,0,1-.357.216Zm-87.094-1.722a.346.346,0,0,1-.35-.265q-.147-.926-.252-1.852a.323.323,0,0,1,.315-.34.343.343,0,0,1,.385.278c.063.617.147,1.235.245,1.852a.323.323,0,0,1-.294.352ZM411.723,176h0a.368.368,0,0,1-.24-.108.286.286,0,0,1-.082-.226q.094-.926.147-1.852a.3.3,0,0,1,.112-.215.379.379,0,0,1,.252-.082.334.334,0,0,1,.336.321,18.327,18.327,0,0,1-.147,1.852.3.3,0,0,1-.122.218.382.382,0,0,1-.263.072Zm-88.074-1.741a.333.333,0,0,1-.35-.3c-.035-.617-.049-1.235-.049-1.852a.331.331,0,0,1,.35-.309h0a.331.331,0,0,1,.35.309c0,.617,0,1.235.049,1.852a.333.333,0,0,1-.336.327Zm88.263-1.963a.331.331,0,0,1-.35-.309c0-.617,0-1.235-.056-1.852a.333.333,0,0,1,.336-.327.378.378,0,0,1,.252.082.3.3,0,0,1,.112.215c.035.617.056,1.235.056,1.852a.277.277,0,0,1-.095.233.362.362,0,0,1-.262.088Zm-88.27-1.741h0a.334.334,0,0,1-.336-.321c.035-.617.084-1.235.154-1.852a.342.342,0,0,1,.381-.281.324.324,0,0,1,.319.336q-.091.92-.147,1.852a.347.347,0,0,1-.378.247Zm88.067-1.957a.33.33,0,0,1-.35-.278q-.105-.926-.252-1.852a.321.321,0,0,1,.3-.352.349.349,0,0,1,.4.265c.1.617.189,1.235.252,1.852a.284.284,0,0,1-.077.228.366.366,0,0,1-.238.112Zm-87.675-1.716h-.049a.318.318,0,0,1-.3-.346c.1-.617.217-1.235.35-1.852a.289.289,0,0,1,.143-.233.374.374,0,0,1,.3-.038.351.351,0,0,1,.226.127.274.274,0,0,1,.054.231c-.126.617-.245,1.235-.343,1.815a.3.3,0,0,1-.117.219A.38.38,0,0,1,324.034,166.878Zm87.059-1.938a.342.342,0,0,1-.343-.247c-.133-.617-.28-1.2-.441-1.8a.266.266,0,0,1,.035-.233.337.337,0,0,1,.217-.137.364.364,0,0,1,.427.222c.168.617.315,1.235.448,1.852a.268.268,0,0,1-.049.231.343.343,0,0,1-.224.127ZM324.825,163.2h-.084a.345.345,0,0,1-.219-.137.272.272,0,0,1-.04-.234c.161-.617.35-1.235.546-1.8a.359.359,0,0,1,.434-.21.339.339,0,0,1,.212.147.271.271,0,0,1,.026.236c-.2.58-.378,1.179-.539,1.772A.339.339,0,0,1,324.825,163.2Zm85.274-1.883a.34.34,0,0,1-.336-.222c-.2-.586-.413-1.173-.644-1.747a.3.3,0,0,1,.217-.4.366.366,0,0,1,.448.191c.231.58.448,1.179.651,1.772a.311.311,0,0,1-.238.389Zm-84.091-1.667a.4.4,0,0,1-.119,0,.3.3,0,0,1-.217-.389c.231-.586.483-1.179.742-1.753a.33.33,0,0,1,.187-.17.393.393,0,0,1,.268,0,.334.334,0,0,1,.192.165.275.275,0,0,1,0,.236c-.259.568-.5,1.148-.7,1.722a.359.359,0,0,1-.357.185Zm82.7-1.852a.353.353,0,0,1-.322-.191c-.259-.568-.539-1.13-.826-1.685a.3.3,0,0,1,.175-.407.385.385,0,0,1,.266-.012.33.33,0,0,1,.2.16c.294.562.574,1.136.84,1.71a.275.275,0,0,1,0,.236.334.334,0,0,1-.192.165.311.311,0,0,1-.133.043Zm-81.144-1.617a.319.319,0,0,1-.147-.031.286.286,0,0,1-.147-.389c.294-.562.6-1.13.924-1.679a.375.375,0,0,1,.473-.133.293.293,0,0,1,.15.417c-.315.543-.623,1.1-.91,1.655a.373.373,0,0,1-.343.179Zm79.394-1.741a.366.366,0,0,1-.315-.167c-.315-.537-.651-1.08-1-1.605a.3.3,0,0,1,.126-.426.385.385,0,0,1,.483.111c.35.537.7,1.087,1.015,1.636a.271.271,0,0,1,.025.234.316.316,0,0,1-.172.179.348.348,0,0,1-.161.056ZM329.5,152.889a.443.443,0,0,1-.175-.037.3.3,0,0,1-.126-.426c.35-.537.7-1.074,1.106-1.593a.381.381,0,0,1,.473-.079.288.288,0,0,1,.115.413c-.378.512-.742,1.043-1.092,1.568a.355.355,0,0,1-.3.173Zm75.355-1.642a.348.348,0,0,1-.294-.142q-.567-.766-1.176-1.519a.275.275,0,0,1-.06-.229.3.3,0,0,1,.144-.2.389.389,0,0,1,.49.068c.406.506.805,1.025,1.19,1.543a.288.288,0,0,1-.1.426.354.354,0,0,1-.189.068Zm-73.08-1.475a.4.4,0,0,1-.2-.056.291.291,0,0,1-.077-.432c.406-.5.833-1.006,1.267-1.494a.383.383,0,0,1,.49-.049.285.285,0,0,1,.063.432c-.427.482-.854.975-1.253,1.469a.353.353,0,0,1-.287.148Zm70.637-1.531a.392.392,0,0,1-.28-.117c-.427-.482-.875-.957-1.33-1.414a.286.286,0,0,1,.035-.438.386.386,0,0,1,.5.031c.462.469.917.951,1.351,1.438a.285.285,0,0,1-.056.432.418.418,0,0,1-.217.086Zm-68.033-1.377a.379.379,0,0,1-.231-.074.289.289,0,0,1-.035-.438c.462-.469.938-.932,1.4-1.383a.386.386,0,0,1,.5-.012.285.285,0,0,1,.014.438c-.476.444-.952.9-1.4,1.364a.348.348,0,0,1-.245.123Zm65.275-1.42a.383.383,0,0,1-.252-.093c-.483-.445-.973-.883-1.477-1.3a.278.278,0,0,1,0-.432.384.384,0,0,1,.5,0c.511.426,1.015.87,1.5,1.321a.283.283,0,0,1,0,.432.368.368,0,0,1-.266.093Zm-62.377-1.266a.383.383,0,0,1-.259-.093.284.284,0,0,1,0-.438c.511-.426,1.036-.852,1.568-1.235a.381.381,0,0,1,.361-.089.324.324,0,0,1,.245.25.3.3,0,0,1-.151.3c-.518.4-1.036.815-1.54,1.235a.374.374,0,0,1-.224.086Zm59.332-1.29a.371.371,0,0,1-.224-.074c-.525-.4-1.071-.79-1.61-1.167a.285.285,0,0,1-.063-.432.39.39,0,0,1,.5-.056c.553.383,1.1.784,1.631,1.191a.292.292,0,0,1,.121.21.281.281,0,0,1-.086.223.351.351,0,0,1-.266.123Zm-56.168-1.136a.361.361,0,0,1-.273-.117.285.285,0,0,1,.056-.432c.553-.383,1.12-.759,1.694-1.124a.383.383,0,0,1,.49.074.287.287,0,0,1-.084.432c-.56.352-1.12.722-1.666,1.1a.335.335,0,0,1-.217.086Zm52.864-1.154a.4.4,0,0,1-.2-.056c-.56-.352-1.141-.7-1.722-1.031a.307.307,0,0,1-.155-.193.274.274,0,0,1,.05-.233.379.379,0,0,1,.483-.093c.588.333,1.176.685,1.75,1.049a.3.3,0,0,1,.144.2.275.275,0,0,1-.06.229.353.353,0,0,1-.287.148Zm-49.448-1a.38.38,0,0,1-.294-.136.293.293,0,0,1,.1-.432c.588-.333,1.2-.661,1.806-.969a.39.39,0,0,1,.37-.023.3.3,0,0,1,.186.282.311.311,0,0,1-.206.272c-.6.309-1.2.617-1.778.957a.339.339,0,0,1-.189.068Zm45.913-1a.363.363,0,0,1-.175-.043c-.595-.309-1.211-.617-1.827-.883a.293.293,0,0,1-.151-.417.375.375,0,0,1,.473-.133c.623.284,1.246.586,1.855.9a.3.3,0,0,1,.133.426.371.371,0,0,1-.308.173Zm-42.287-.852a.358.358,0,0,1-.308-.167.3.3,0,0,1,.147-.42c.623-.284,1.26-.556,1.9-.815a.385.385,0,0,1,.266-.012.33.33,0,0,1,.2.16.306.306,0,0,1-.175.414c-.623.253-1.253.525-1.869.8a.348.348,0,0,1-.161.056Zm38.549-.852a.356.356,0,0,1-.14,0c-.637-.253-1.281-.5-1.925-.728a.326.326,0,0,1-.191-.165.269.269,0,0,1,0-.236.375.375,0,0,1,.455-.173c.651.235,1.309.482,1.946.741a.3.3,0,0,1,.175.407.372.372,0,0,1-.322.173Zm-34.741-.691a.355.355,0,0,1-.413-.253.319.319,0,0,1,.287-.364c.651-.228,1.316-.451,1.974-.654a.366.366,0,0,1,.448.191.3.3,0,0,1-.217.4c-.651.2-1.309.414-1.946.617a.406.406,0,0,1-.133.086Zm30.835-.685a.355.355,0,0,1-.112,0c-.658-.2-1.33-.389-2-.556a.3.3,0,0,1-.231-.383.312.312,0,0,1,.166-.187.384.384,0,0,1,.268-.023c.7.173,1.351.364,2.016.568a.32.32,0,0,1,.294.358.352.352,0,0,1-.406.259ZM355.275,135a.361.361,0,0,1-.336-.222.3.3,0,0,1,.238-.383c.7-.179,1.365-.34,2.044-.488a.365.365,0,0,1,.434.235.318.318,0,0,1-.266.383c-.7.142-1.351.3-2.016.482Zm22.841-.512h-.084c-.7-.142-1.358-.272-2.037-.389a.314.314,0,0,1-.28-.358.357.357,0,0,1,.413-.247c.7.117,1.4.247,2.065.4a.322.322,0,0,1,.311.343.344.344,0,0,1-.389.275Zm-18.76-.37a.342.342,0,0,1-.343-.247.319.319,0,0,1,.28-.364c.7-.117,1.4-.222,2.1-.309a.349.349,0,0,1,.4.265.321.321,0,0,1-.3.352c-.7.086-1.4.191-2.051.3Zm14.63-.321h-.049c-.7-.08-1.4-.154-2.065-.21a.324.324,0,0,1-.319-.336.342.342,0,0,1,.382-.281c.7.056,1.4.13,2.1.216a.325.325,0,0,1,.325.33.339.339,0,0,1-.374.287Zm-10.5-.2a.342.342,0,0,1-.35-.284.279.279,0,0,1,.078-.225.36.36,0,0,1,.237-.108c.7-.062,1.4-.1,2.1-.136a.311.311,0,1,1,0,.617c-.7,0-1.4.074-2.1.13Zm6.3-.142h0c-.7,0-1.344-.037-2.023-.037a.37.37,0,0,1-.385-.309.264.264,0,0,1,.084-.217.343.343,0,0,1,.238-.092h.063c.7,0,1.4,0,2.051.037a.311.311,0,1,1,0,.617Z" transform="translate(-131.039 -115.286)"/><path class="f" d="M388.776,187.35,396,189.374a14.194,14.194,0,0,1-5.523,7.908,17.305,17.305,0,0,1-9.8,2.587,16.969,16.969,0,0,1-12.075-4.426q-4.732-4.426-4.732-12.106,0-8.124,4.753-12.612t12.509-4.494q6.762,0,10.99,3.525a12.519,12.519,0,0,1,3.773,5.994l-7.371,1.55c-.7-3.263-4.006-5.583-7.77-5.457a8.934,8.934,0,0,0-6.657,2.6q-2.548,2.593-2.555,8.408,0,6.174,2.52,8.785a8.651,8.651,0,0,0,6.538,2.618,8.1,8.1,0,0,0,5.11-1.661A9.394,9.394,0,0,0,388.776,187.35Z" transform="translate(-143.225 -128.078)"/></g><g transform="translate(81.501 37.469)"><path class="l" d="M170.254,403.736h5.131l-.014-10.476H170.24Z" transform="translate(-132.573 -221.904)"/><path class="l" d="M119.53,397.31l5.075.654,3.752-10.1-5.075-.654Z" transform="translate(-117.36 -219.589)"/><path class="i" d="M129.053,404.836a1.672,1.672,0,0,0,1-.1.6.6,0,0,0,.315-.531.371.371,0,0,0-.168-.333c-.532-.321-2.275.358-2.471.432a.116.116,0,0,0-.07.1.127.127,0,0,0,.084.1,7.151,7.151,0,0,0,1.309.333Zm.861-.84a.48.48,0,0,1,.154.049.128.128,0,0,1,.056.136.393.393,0,0,1-.2.364,2.732,2.732,0,0,1-1.813-.148A5.2,5.2,0,0,1,129.914,404Z" transform="translate(-119.799 -225.93)"/><path class="i" d="M127.774,403.816h.056c.553-.185,1.687-1.043,1.638-1.556a.4.4,0,0,0-.357-.333.709.709,0,0,0-.525.074c-.637.352-.91,1.636-.917,1.691a.1.1,0,0,0,.042.1A.191.191,0,0,0,127.774,403.816Zm1.232-1.7h.056c.154.037.161.105.161.13,0,.309-.7.969-1.267,1.235a2.413,2.413,0,0,1,.763-1.333.442.442,0,0,1,.287-.056Z" transform="translate(-119.801 -225.213)"/><path class="m" d="M124.1,403.4l-5.7-.735a.434.434,0,0,0-.469.253l-1.463,3.877a.628.628,0,0,0,.091.58.807.807,0,0,0,.56.315c2,.228,2.975.247,5.481.568,1.54.2,6.629,1.685,8.757,1.963s2.625-1.562,1.771-1.852a23.3,23.3,0,0,1-8.239-4.593A1.376,1.376,0,0,0,124.1,403.4Z" transform="translate(-116.431 -225.502)"/><path class="i" d="M179.861,409.951a2.056,2.056,0,0,0,1.232-.278.525.525,0,0,0,.2-.519.342.342,0,0,0-.217-.284c-.637-.309-2.653.617-2.877.722a.1.1,0,0,0-.063.111.128.128,0,0,0,.1.086,9.526,9.526,0,0,0,1.617.161Zm.882-.932a.586.586,0,0,1,.231.037.142.142,0,0,1,.084.117.38.38,0,0,1-.133.346,3.639,3.639,0,0,1-2.282.117,7.065,7.065,0,0,1,2.1-.617Z" transform="translate(-134.942 -227.854)"/><path class="i" d="M178.269,409.147h.049c.609-.247,1.785-1.235,1.666-1.735,0-.117-.133-.272-.469-.3a.909.909,0,0,0-.665.179,2.714,2.714,0,0,0-.7,1.747.108.108,0,0,0,.056.093.164.164,0,0,0,.063.012Zm1.162-1.852h.07c.224,0,.238.1.245.123.07.3-.7,1.074-1.337,1.408a2.253,2.253,0,0,1,.609-1.4.666.666,0,0,1,.427-.117Z" transform="translate(-134.947 -227.203)"/><path class="m" d="M174.568,409.38h-5.6a.409.409,0,0,0-.42.309l-.812,4.025a.636.636,0,0,0,.178.56.832.832,0,0,0,.6.242c2.016-.031,4.9-.136,7.469-.136,2.968,0,5.544.142,9.023.142,2.1,0,2.6-1.852,1.708-2.043-4.053-.778-7.329-.858-10.892-2.747A2.715,2.715,0,0,0,174.568,409.38Z" transform="translate(-131.819 -228.072)"/><path class="l" d="M150.993,142.92c.9,3.309,1.47,7.408-1.043,9.618,0,0,1.673,3.358,8.645,3.358,6.377,0,3.017-3.358,3.017-3.358-4.2-.877-4.235-5.445-3.64-8.026Z" transform="translate(-126.486 -126.111)"/><path class="i" d="M163.57,159.677c.2-2.266.518-4.71-2.016-5.982-1.9-.957-10.612-1.852-13.251-1.056s-.651,4.994-.651,4.994Z" transform="translate(-125.582 -129.713)"/><path class="n" d="M175.371,393.27l.007,5.4h-5.131l-.007-5.4Z" transform="translate(-132.573 -221.908)"/><path class="n" d="M124.052,387.21l5.082.654-1.939,5.21-5.075-.654Z" transform="translate(-118.137 -219.589)"/><path class="l" d="M131.334,165.1l6.363,3.655s-8.176,13.921-7.322,16.15c1.169,3.037,2.912,9.674,5.005,13.045a6.008,6.008,0,0,1-2.1,2.673c-5.047-3.284-10.5-13.582-10.5-16.465C122.892,177.607,131.334,165.1,131.334,165.1Z" transform="translate(-118.335 -134.599)"/><path class="l" d="M139.687,218.1l4.865-.333-2.331,4.76s-4.27.167-5.131-2.716Z" transform="translate(-122.628 -154.753)"/><path class="l" d="M150.818,219.937l-2.352,4.217-4.046-1.624,2.331-4.76Z" transform="translate(-124.827 -154.753)"/><path class="m" d="M132.779,160.109c-4.823.617-9.639,15.434-9.639,15.434l10.444,5.075a94.473,94.473,0,0,0,6.09-12.273C141.718,162.856,137.945,159.442,132.779,160.109Z" transform="translate(-118.443 -132.657)"/><path class="n" d="M140.166,168.226c2.1-1.778,1.148,5.834.336,10.7-.49.951-.959,1.815-1.351,2.537C136.5,177.641,137.254,170.677,140.166,168.226Z" transform="translate(-122.757 -135.694)"/><path class="m" d="M165.673,159.667s6.734,13.656,2.254,39.091H140.473c-.371-3.7,1.4-21.83-3.563-39.325a79.068,79.068,0,0,1,9.1-1.025,114.737,114.737,0,0,1,11.662,0,58.791,58.791,0,0,1,8,1.259Z" transform="translate(-122.575 -131.981)"/><path class="i" d="M146.369,157.838c-1.078.512-2.415,2.71-2.156,6.5a51.048,51.048,0,0,1-.623,9.754l1.589.7v1.982l3.976.463s-2.009-15.434,0-19.138C148.49,157.1,146.369,157.838,146.369,157.838Z" transform="translate(-124.578 -131.72)"/><path class="n" d="M145.584,180.138l.448-8.618-1.092,8.34Z" transform="translate(-124.983 -137.055)"/><path class="l" d="M172.39,169.324l6.79-2.414s9.184,13.755,11.1,14.909c1.078-1.908,4.529-2.827,6.3-6.285a6.225,6.225,0,0,1,3.3.333c.182,5.346-8.127,16.1-14.21,11.174C180.076,182.51,172.39,169.324,172.39,169.324Z" transform="translate(-133.218 -135.291)"/><path class="n" d="M171.06,166.31a4.926,4.926,0,0,1,5.481-2.951,60.458,60.458,0,0,1,3.052,18.521l-1.6.691S169.3,170.28,171.06,166.31Z" transform="translate(-132.749 -133.907)"/><path class="m" d="M169.418,163.549c-1.526,4.05,7.826,15.965,7.826,15.965l10.01-4.939a56.314,56.314,0,0,0-6.454-10.588C176.929,159.24,171.091,159.11,169.418,163.549Z" transform="translate(-132.276 -132.769)"/><path class="l" d="M206.84,178.157l3.038-4.877,4.592,3.834a17.678,17.678,0,0,1-4.557,3.155Z" transform="translate(-143.553 -137.729)"/><path class="l" d="M213.217,169.78l3.773,2.4-1.218,3.593-4.592-3.834Z" transform="translate(-144.855 -136.389)"/><path class="m" d="M167.677,134.785a.636.636,0,0,0,.56.617c.266,0,.455-.321.413-.685a.636.636,0,0,0-.567-.617C167.81,134.1,167.635,134.421,167.677,134.785Z" transform="translate(-131.803 -122.736)"/><path class="o" d="M167.16,135.26a13.773,13.773,0,0,0,2.324,3.013,2.527,2.527,0,0,1-1.925.426Z" transform="translate(-131.649 -123.18)"/><path class="m" d="M167.473,132.336l.1-.037a.209.209,0,0,0,.1-.138.191.191,0,0,0-.043-.159,2.648,2.648,0,0,0-1.946-1.012.255.255,0,0,0-.171.064.2.2,0,0,0-.067.152.246.246,0,0,0,.252.216h0a2.074,2.074,0,0,1,1.533.809A.271.271,0,0,0,167.473,132.336Z" transform="translate(-131.136 -121.546)"/><path class="l" d="M147.731,130.4c.826,4.457,1.05,7.093,3.871,9.26a7.252,7.252,0,0,0,6.729,1.127,5.978,5.978,0,0,0,4.212-4.763c.623-4.074-.833-10.674-5.992-12.2a7.349,7.349,0,0,0-6.582,1.026A5.491,5.491,0,0,0,147.731,130.4Z" transform="translate(-125.786 -118.664)"/><path class="m" d="M158.732,123.61c2.45,2.945-1.134,5.47-2.919,5.161-.217,3-4.333,7.143-6.454,7.013-4.2-.253-3.843-4.593-6.4-6.754-3-2.531-3.4-5.47-.623-6.958-2.268-.21,1.106-7.056,8.148-4.618,8.841,3.087,14.5,4.284,14.546.957C166.523,122.085,162.855,125.19,158.732,123.61Z" transform="translate(-123.642 -116.167)"/><path class="m" d="M142.541,121.772a.7.7,0,0,1-.469-.173,2.208,2.208,0,0,1-.259-2.2c.28-.926,1.239-2.951,4.669-3.7a.178.178,0,0,1,.21.111.138.138,0,0,1-.017.119.174.174,0,0,1-.109.072c-3.248.71-4.165,2.673-4.417,3.482a1.952,1.952,0,0,0,.168,1.9.352.352,0,0,0,.329.074.194.194,0,0,1,.193.018.143.143,0,0,1,.056.164.172.172,0,0,1-.151.108A.6.6,0,0,1,142.541,121.772Z" transform="translate(-123.999 -115.693)"/><path class="l" d="M158.6,136.435a4.414,4.414,0,0,0,2.534,1.908c1.442.426,2.177-.679,1.785-1.9-.35-1.1-1.526-2.642-2.975-2.531A1.6,1.6,0,0,0,158.6,136.435Z" transform="translate(-129.001 -122.664)"/><path class="i" d="M153,223.86s-4.1,34.572-6.643,47.536c-2.8,14.2-17.416,58.451-17.416,58.451l-9.3-1.2s10.094-41.924,11.389-55.963c1.4-15.242,4.263-48.808,4.263-48.808Z" transform="translate(-117.393 -157.083)"/><path class="p" d="M153,223.86s-4.1,34.572-6.643,47.536c-2.8,14.2-17.416,58.451-17.416,58.451l-9.3-1.2s10.094-41.924,11.389-55.963c1.4-15.242,4.263-48.808,4.263-48.808Z" transform="translate(-117.393 -157.083)"/><path class="n" d="M157.411,243.038c.406-.543.791-.728,1.162-.617h.077a1.056,1.056,0,0,1,.231.124,1.8,1.8,0,0,1,.21.179c.042.037.077.08.119.123s.1.13.161.2a5.064,5.064,0,0,1,.343.562c.063.117.119.241.175.364s.14.315.21.488.182.469.273.722l.063.2c.049.142.091.284.14.426l.105.37c.077.247.147.494.217.753s.14.562.21.852a1.2,1.2,0,0,0,.077.3c.084.37.168.753.252,1.136h0c-1.127,8.606-2.478,18.471-3.654,25.355-.084-.222-.168-.457-.252-.71a30.4,30.4,0,0,1-.875-3.482C154.912,261.516,154.779,246.576,157.411,243.038Z" transform="translate(-128.117 -164.174)"/><path class="i" d="M173.462,223.86s2.394,33.818,2.527,47.616c.14,14.347-3.2,61.321-3.2,61.321H164.1s-2.625-46.135-3.717-60.229c-1.183-15.36-4.956-48.709-4.956-48.709Z" transform="translate(-128.131 -157.083)"/><path class="p" d="M173.462,223.86s2.394,33.818,2.527,47.616c.14,14.347-3.2,61.321-3.2,61.321H164.1s-2.625-46.135-3.717-60.229c-1.183-15.36-4.956-48.709-4.956-48.709Z" transform="translate(-128.131 -157.083)"/><path class="i" d="M166.828,396.329c-.035,0,.126,2.5.126,2.5h10.017l.28-2.809Z" transform="translate(-131.548 -222.96)"/><path class="i" d="M119.7,390.09c-.042,0-.7,2.247-.7,2.247l10.213,1.315,1.211-2.531Z" transform="translate(-117.201 -220.691)"/></g></svg>