<svg xmlns="http://www.w3.org/2000/svg" xmlns:xlink="http://www.w3.org/1999/xlink" width="781.581" height="430" viewBox="0 0 781.581 430"><defs><style>.a{fill:#f90;}.a,.b,.t{fill-rule:evenodd;}.c{fill:#ea4335;}.d{fill:#fbbc05;}.e{fill:#4285f4;}.f{fill:#34a853;}.g{fill:#83b81a;}.h{fill:#007db8;}.i{fill:#0096d6;}.j{fill:#0071c5;}.k{fill:#737373;}.l{fill:#f25022;}.m{fill:#7fba00;}.n{fill:#00a4ef;}.o{fill:#ffb900;}.p{fill:#e32124;}.q{fill:#fefefe;}.r{fill:url(#a);}.s{fill:#1870c5;}.t,.w{fill:#fff;}.u{fill:#034ea2;}.v{fill:#d71a21;}.x{fill:#e11937;}</style><linearGradient id="a" x2="0.011" gradientUnits="objectBoundingBox"><stop offset="0" stop-color="#00b8f1"/><stop offset="0.22" stop-color="#06a5e5"/><stop offset="0.794" stop-color="#1870c5"/><stop offset="1" stop-color="#1d61bc"/></linearGradient></defs><g transform="translate(-700 -6306)"><g transform="translate(950.395 6306)"><path class="a" d="M236.63,202.348c-11.622,9.949-28.468,15.258-42.972,15.258-20.337,0-38.645-8.736-52.5-23.266-1.088-1.143-.113-2.7,1.193-1.81a94.614,94.614,0,0,0,52.523,16.178,92.067,92.067,0,0,0,40.064-9.515c1.967-.971,3.613,1.5,1.689,3.155" transform="translate(-112.554 -147.606)"/><path class="a" d="M586.422,187.9c-1.48-2.2-9.82-1.042-13.564-.526-1.14.162-1.314-.991-.287-1.82,6.643-5.43,17.542-3.862,18.813-2.042s-.331,14.52-6.573,20.576c-.958.93-1.872.435-1.445-.8,1.4-4.065,4.545-13.175,3.056-15.389" transform="translate(-457.514 -139.582)"/><path class="b" d="M115.605,7.644V2.366a1.22,1.22,0,0,1,1.149-1.335H137.1a1.229,1.229,0,0,1,1.175,1.335v4.52c-.009.758-.557,1.749-1.532,3.317L126.2,27.684a19.894,19.894,0,0,1,11.6,2.892,2.488,2.488,0,0,1,1.08,2.052v5.632c0,.768-.731,1.668-1.5,1.2a20.572,20.572,0,0,0-21.495.04c-.705.445-1.445-.445-1.445-1.213V32.942a7.233,7.233,0,0,1,.749-3.63L127.41,8.969H116.78a1.22,1.22,0,0,1-1.175-1.325M41.388,40.576H35.2a1.265,1.265,0,0,1-1.106-1.223V2.457a1.258,1.258,0,0,1,1.193-1.325h5.772A1.259,1.259,0,0,1,42.18,2.366V7.189h.113C43.8,2.528,46.629.354,50.442.354c3.874,0,6.294,2.174,8.036,6.835,1.5-4.661,4.9-6.835,8.549-6.835a8.408,8.408,0,0,1,7.165,4.034C76.15,7.493,75.75,12,75.75,15.956l-.009,23.286a1.267,1.267,0,0,1-1.193,1.335H68.367a1.291,1.291,0,0,1-1.114-1.335V19.687a53.6,53.6,0,0,0-.174-6.916C66.617,10.293,65.233,9.6,63.44,9.6a4.184,4.184,0,0,0-3.7,3.023c-.635,1.861-.574,4.975-.574,7.068V39.242a1.267,1.267,0,0,1-1.193,1.335H51.791a1.284,1.284,0,0,1-1.114-1.335l-.009-19.555c0-4.115.583-10.172-3.813-10.172-4.449,0-4.275,5.9-4.275,10.172V39.242a1.267,1.267,0,0,1-1.193,1.335M155.792.354c9.185,0,14.156,9.161,14.156,20.809,0,11.254-5.493,20.182-14.156,20.182-9.019,0-13.929-9.161-13.929-20.576,0-11.486,4.971-20.414,13.929-20.414m.052,7.533c-4.562,0-4.849,7.219-4.849,11.719s-.061,14.135,4.8,14.135c4.8,0,5.023-7.765,5.023-12.5a39.382,39.382,0,0,0-.923-9.788c-.7-2.568-2.081-3.569-4.048-3.569m26.013,32.689h-6.164a1.291,1.291,0,0,1-1.114-1.335L174.57,2.336a1.246,1.246,0,0,1,1.193-1.2H181.5a1.241,1.241,0,0,1,1.106,1.031V7.806h.113C184.451,2.76,186.88.354,191.155.354A7.849,7.849,0,0,1,198.381,4.7C200,7.654,200,12.619,200,16.188V39.413a1.258,1.258,0,0,1-1.193,1.163H192.6a1.259,1.259,0,0,1-1.1-1.163V19.373c0-4.034.4-9.939-3.874-9.939a4.123,4.123,0,0,0-3.578,2.953,18.714,18.714,0,0,0-.984,6.987V39.242a1.286,1.286,0,0,1-1.21,1.335M99.386,22.953c0,2.8.061,5.137-1.158,7.624-.984,2.023-2.551,3.266-4.283,3.266-2.377,0-3.77-2.1-3.77-5.207,0-6.127,4.727-7.24,9.211-7.24v1.557m6.242,17.523a1.152,1.152,0,0,1-1.462.172,17.112,17.112,0,0,1-3.552-4.793c-3.4,4.024-5.807,5.228-10.2,5.228-5.215,0-9.263-3.731-9.263-11.2,0-5.834,2.716-9.808,6.6-11.749,3.361-1.719,8.053-2.022,11.64-2.5V14.7c0-1.709.113-3.731-.758-5.207a3.922,3.922,0,0,0-3.474-1.871,4.867,4.867,0,0,0-4.971,4.317c-.1.647-.514,1.284-1.08,1.314l-6-.748A1.252,1.252,0,0,1,82.183,11C83.559,2.548,90.141,0,96.026,0c3.012,0,6.947.93,9.324,3.58,3.012,3.266,2.725,7.624,2.725,12.366v11.2c0,3.367,1.2,4.843,2.333,6.663a1.519,1.519,0,0,1-.026,1.911c-1.262,1.223-3.509,3.5-4.745,4.773l-.009-.02M18.239,22.953c0,2.8.061,5.137-1.158,7.624C16.1,32.6,14.539,33.842,12.8,33.842c-2.377,0-3.761-2.1-3.761-5.207,0-6.127,4.727-7.24,9.2-7.24v1.557m6.242,17.523a1.152,1.152,0,0,1-1.462.172,17.283,17.283,0,0,1-3.552-4.793c-3.4,4.024-5.8,5.228-10.2,5.228C4.057,41.082,0,37.351,0,29.879c0-5.834,2.725-9.808,6.6-11.749,3.361-1.719,8.053-2.022,11.64-2.5V14.7c0-1.709.113-3.731-.749-5.207a3.941,3.941,0,0,0-3.474-1.871,4.876,4.876,0,0,0-4.98,4.317c-.1.647-.514,1.284-1.071,1.314l-6.007-.748A1.258,1.258,0,0,1,1.036,11C2.42,2.548,8.993,0,14.878,0,17.89,0,21.826.93,24.2,3.58c3.012,3.266,2.725,7.624,2.725,12.366v11.2c0,3.367,1.2,4.843,2.333,6.663a1.508,1.508,0,0,1-.017,1.911c-1.262,1.223-3.508,3.5-4.745,4.773l-.017-.02"/></g><g transform="translate(700 6306)"><path class="c" d="M103.9,42.022c0,10.071-7.41,17.492-16.5,17.492s-16.5-7.421-16.5-17.492c0-10.142,7.41-17.492,16.5-17.492S103.9,31.88,103.9,42.022Zm-7.224,0c0-6.293-4.295-10.6-9.279-10.6s-9.279,4.306-9.279,10.6c0,6.23,4.295,10.6,9.279,10.6S96.673,48.245,96.673,42.022Z" transform="translate(-18.309 -5.185)"/><path class="d" d="M151.9,42.022c0,10.071-7.41,17.492-16.5,17.492s-16.5-7.421-16.5-17.492c0-10.134,7.41-17.492,16.5-17.492S151.9,31.88,151.9,42.022Zm-7.224,0c0-6.293-4.295-10.6-9.279-10.6s-9.279,4.306-9.279,10.6c0,6.23,4.295,10.6,9.279,10.6S144.673,48.245,144.673,42.022Z" transform="translate(-30.706 -5.185)"/><path class="e" d="M198.408,25.587v31.4c0,12.918-7.165,18.194-15.636,18.194-7.974,0-12.773-5.67-14.582-10.308l6.29-2.784c1.12,2.847,3.864,6.207,8.285,6.207,5.422,0,8.782-3.557,8.782-10.252V55.532H191.3a10.923,10.923,0,0,1-8.663,3.975c-8.226,0-15.762-7.618-15.762-17.421,0-9.874,7.536-17.555,15.762-17.555a11.107,11.107,0,0,1,8.663,3.912h.252V25.595h6.861Zm-6.349,16.5c0-6.159-3.864-10.662-8.782-10.662-4.984,0-9.16,4.5-9.16,10.662,0,6.1,4.176,10.536,9.16,10.536C188.195,52.621,192.059,48.181,192.059,42.085Z" transform="translate(-43.098 -5.185)"/><path class="f" d="M222.186,2.53V53.792H215.14V2.53Z" transform="translate(-55.564 -0.535)"/><path class="c" d="M253.155,47.777l5.607,3.975A16.2,16.2,0,0,1,245.055,59.5c-9.346,0-16.325-7.681-16.325-17.492,0-10.4,7.039-17.492,15.517-17.492,8.537,0,12.713,7.224,14.078,11.128l.749,1.987L237.082,47.32c1.684,3.509,4.3,5.3,7.974,5.3s6.231-1.924,8.1-4.842ZM235.9,41.484l14.7-6.491a6.325,6.325,0,0,0-6.1-3.707C240.82,31.287,235.71,34.733,235.9,41.484Z" transform="translate(-59.074 -5.182)"/><path class="e" d="M25.909,32.287V24.866h23.52a26.106,26.106,0,0,1,.349,4.479c0,5.568-1.432,12.453-6.045,17.358-4.487,4.968-10.221,7.618-17.816,7.618C11.838,54.322,0,42.129,0,27.161S11.838,0,25.916,0a23.629,23.629,0,0,1,17.5,7.484L38.5,12.721a17.257,17.257,0,0,0-12.587-5.3c-10.28,0-18.321,8.809-18.321,19.74S15.628,46.9,25.909,46.9a16.611,16.611,0,0,0,12.9-5.434c1.973-2.1,3.271-5.095,3.783-9.188Z"/></g><path class="g" d="M149.645,3.09c-.532-1.373-1.063-2.4-3.72-2.745-.708,0-2.834-.344-6.554-.344-9.742,0-16.473,5.833-19.839,17.157C120.418,5.834,114.75,0,102.35,0,87.826,0,78.615,11.324,74.895,34.315c-1.417,8.578-1.417,15.441-.354,20.931H71a77.146,77.146,0,0,1-8.5.686c-5.314,0-8.679-1.716-9.919-5.147-1.063-3.088-1.063-8.922.354-17.5,2.3-14.069,7.794-20.245,16.65-20.245a45.436,45.436,0,0,1,9.034,1.03c.532,0,.886-1.372.886-2.4l-.178-1.03-.354-4.8c-.178-3.088-1.417-4.8-3.543-5.49A30.418,30.418,0,0,0,69.758,0h-.178C58.067,0,49.919,7.549,45.491,21.961,47.085,7.206,41.771,0,29.549,0c-6.908,0-11.868.344-14.7,1.03-2.3.686-3.72,2.4-4.251,5.49L9.533,12.7c-.178,1.03.178,1.716.886,1.716.532,0,2.657-.686,6.2-1.03a80.909,80.909,0,0,1,10.451-1.03c6.731,0,9.742,3.432,8.68,9.951-.178,1.373-.709,2.4-1.594,2.745C27.777,27.108,22.64,28.48,18.921,29.51,8.293,32.255,2.093,38.431.5,48.726c-2.3,14.069,3.366,20.932,17,20.932,6.731,0,12.576-.686,17.182-2.4,2.657-1.03,4.074-2.059,4.605-5.49l2.48-15.784c-.178,15.784,5.314,23.677,17,23.677,4.96,0,9.742-.344,12.045-1.03s3.543-1.716,4.074-5.147l.532-4.8C77.906,66.225,83.4,70,91.722,70c8.857,0,13.993-.344,15.41-1.372a5.263,5.263,0,0,0,2.3-3.775,2.111,2.111,0,0,1,.178-1.03l1.063-6.52c.178-1.03-.178-1.716-.886-1.716l-5.668.686c-3.72.344-6.731.686-8.857.686-4.074,0-6.731-.686-8.325-1.716-2.3-1.716-3.366-4.8-3.188-9.951l17.89-4.461c7.971-2.059,13.462-6.863,16.119-14.412l-6.2,40.148a2.583,2.583,0,0,0,.178,1.716,1.28,1.28,0,0,0,1.24.686h7.44c1.24,0,1.771-1.373,1.948-2.4L128.921,22.3c.886-5.833,3.543-8.578,8.5-8.578a72.32,72.32,0,0,1,9.742.344h.178c.354,0,1.063-.344,1.594-2.059L150,5.833a6.492,6.492,0,0,0-.354-2.745ZM30.258,55.933a36.939,36.939,0,0,1-9.919,1.03c-7.617,0-10.805-3.088-9.919-8.922.708-4.118,2.657-6.863,5.845-7.549l17.182-4.461Zm79.178-35.687q-1.063,6.691-10.1,9.265L84.991,33.286l.354-2.4c1.24-7.549,2.834-12.353,4.96-15.1s5.668-4.118,10.628-4.118c6.554.344,9.388,3.088,8.5,8.578Z" transform="translate(890.617 6631)"/><path class="h" d="M32.549,26.307,23.855,33A7.632,7.632,0,0,0,16.5,27.2H10.256V42.58H16.5a7.443,7.443,0,0,0,7.356-5.8l8.695,6.688,8.695-6.688v5.8h9.808V39.459H44.588V27.2H41.02v5.8l-8.249,6.69-1.784-1.561L35,35l4.235-3.344-2.451-2.005-8.249,6.464-1.783-1.561L35,28.312l-2.453-2.005ZM13.6,30.318h2.676a3.843,3.843,0,0,1,1.6.357,4.307,4.307,0,0,1,1.35.982,4.709,4.709,0,0,1,.934,1.483,5.117,5.117,0,0,1,.03,3.627,4.838,4.838,0,0,1-.881,1.494A4.213,4.213,0,0,1,17.972,39.3a3.872,3.872,0,0,1-1.7.385H13.6V30.318ZM62.2,39.46v3.121H52.39V27.2h3.567V39.459H62.2ZM35,0A35,35,0,1,0,70,35,35.2,35.2,0,0,0,35,0Zm0,3.568a31.69,31.69,0,0,1,6.342.636A31.37,31.37,0,0,1,65.8,28.658a31.934,31.934,0,0,1,0,12.684A31.37,31.37,0,0,1,41.342,65.8a31.934,31.934,0,0,1-12.684,0,31.024,31.024,0,0,1-5.906-1.826A31.368,31.368,0,0,1,4.2,41.345a31.93,31.93,0,0,1,0-12.684A31.368,31.368,0,0,1,28.658,4.207,31.68,31.68,0,0,1,35,3.571Z" transform="translate(1411.58 6451)"/><g transform="translate(1291.185 6451)"><path class="i" d="M70,35A35,35,0,0,0,35,0c-.527,0-1.051.013-1.573.037L26.268,19.714H32.5c3.709,0,5.709,2.856,4.439,6.345L28.111,50.327H20.7l9.476-26.012H24.6L15.121,50.326H7.7L18.846,19.714h0l6.7-18.422A35.009,35.009,0,0,0,26.875,69.05L33.37,51.2h.005L44.833,19.714H58.49c3.713,0,5.711,2.856,4.441,6.345l-7.76,21.315a4.825,4.825,0,0,1-4.215,2.952H41.113L33.961,69.984c.345.009.692.016,1.039.016A35,35,0,0,0,70,35"/><path class="i" d="M74.4,34.638H68.826l-7.8,21.414h5.573l7.8-21.414" transform="translate(-18.221 -10.343)"/></g><g transform="translate(1291.617 6631.001)"><path class="j" d="M29.462,29.691V46.832H24.322V25.286l10.613.011c4.508,0,6.043,3.374,6.043,6.44v15.1H35.846V31.765a1.866,1.866,0,0,0-2.136-2.074Zm34.954-.258a3.912,3.912,0,0,0-3.685,2.261,5.868,5.868,0,0,0-.492,2.337h7.908c-.1-2.337-1.1-4.6-3.732-4.6M60.24,37.745c0,2.791,1.634,4.845,4.553,4.845A5.625,5.625,0,0,0,69.5,40.536l3.175,3.218a9.87,9.87,0,0,1-7.924,3.424c-4.921,0-9.63-2.848-9.63-11.149,0-7.092,4.111-11.108,9.514-11.108,5.476,0,8.64,4.7,8.64,10.858v1.966H60.24m-9.454,9.061c-4.188,0-5.965-3.094-5.965-6.151V19.416h5.133v5.87h3.869v4.4H49.954V40.313c0,1.252.557,1.947,1.781,1.947h2.088v4.546H50.786m-31.038-24.5H14.572V17.09h5.176Zm.013,24.75c-3.876-.4-5.195-2.891-5.195-5.771l.006-16h5.189ZM81.449,46.6c-3.868-.4-5.18-2.887-5.18-5.763V16.347h5.18ZM99.558,19.886C94.863-4.409,50.435-5.947,21.8,12.558V14.6C50.406-1.005,90.978-.913,94.675,21.464c1.237,7.4-2.691,15.114-9.706,19.548v5.8c8.444-3.279,17.1-13.912,14.589-26.927M47.5,62.393c-19.764,1.94-40.359-1.106-43.241-17.5-1.411-8.081,2.058-16.648,6.659-21.97V20.079c-8.283,7.71-12.778,17.47-10.19,29,3.3,14.789,20.979,23.17,47.958,20.387,10.674-1.106,24.646-4.749,34.359-10.408V51.021C74.234,56.593,59.649,61.2,47.5,62.393" transform="translate(0 0)"/><path class="j" d="M255.675,47.519c0-.266-.147-.351-.482-.351h-.324v.754c.047,0,.282.009.324.009.335,0,.482-.119.482-.368Zm.5,1.871H255.8a.091.091,0,0,1-.08-.054l-.523-.941a.114.114,0,0,0-.072-.042h-.235v.934a.1.1,0,0,1-.094.1h-.347a.105.105,0,0,1-.087-.1V46.924c0-.137.05-.194.159-.212s.455-.028.635-.028c.637,0,1.023.2,1.023.835v.044a.668.668,0,0,1-.47.7l.543.974a.429.429,0,0,1,.016.07.076.076,0,0,1-.083.081m-.911-3.132a1.821,1.821,0,1,0,1.71,1.823,1.775,1.775,0,0,0-1.71-1.823m0,4.011a2,2,0,0,1-1.459-.639,2.288,2.288,0,0,1,0-3.1,2,2,0,0,1,1.459-.64,2.191,2.191,0,0,1,0,4.376" transform="translate(-168.239 -29.546)"/></g><g transform="translate(1200.789 6306)"><path class="k" d="M182.7,49.511l-1.192,5.535h-.1c-.2-1.248-.563-3.147-1.159-5.426L173.859,23.3H167.6V65.247h4.14V39.364c0-1.628,0-3.473-.033-5.752-.033-1.14-.1-2.008-.133-2.659h.1c.2,1.628.431,2.822.6,3.581l7.683,30.6h2.914l7.617-30.876c.166-.705.331-2.116.5-3.31h.1c-.1,3.093-.166,5.86-.2,7.543V65.085h4.4V23.193h-6.027ZM199.46,35.022h4.305V65.085H199.46Zm2.186-12.7a2.206,2.206,0,0,0-1.822,1.194,5.263,5.263,0,0,0-.762,2.93,5.2,5.2,0,0,0,.762,2.876,2.141,2.141,0,0,0,1.822,1.14,2.217,2.217,0,0,0,1.821-1.14,5.2,5.2,0,0,0,.762-2.876,5.524,5.524,0,0,0-.762-2.93,2.085,2.085,0,0,0-1.821-1.194m17.387,12.426a7.579,7.579,0,0,0-2.418-.434,7.444,7.444,0,0,0-5.233,2.116,13.354,13.354,0,0,0-3.444,5.806,28.571,28.571,0,0,0-1.192,8.682,24.733,24.733,0,0,0,1.159,7.76,12.1,12.1,0,0,0,3.246,5.372,6.828,6.828,0,0,0,4.736,1.9,7.394,7.394,0,0,0,5.2-2.008l.033-.054V57.379l-.166.217a7.19,7.19,0,0,1-2.086,1.791,4.279,4.279,0,0,1-2.053.651,4.367,4.367,0,0,1-4.04-2.6,14.391,14.391,0,0,1-1.49-7.109A14.766,14.766,0,0,1,212.806,43a4.622,4.622,0,0,1,4.04-2.713,5.547,5.547,0,0,1,4.107,2.279l.166.217V35.891l-.033-.054a7.652,7.652,0,0,0-2.053-1.085m14.208-.217a3.654,3.654,0,0,0-2.914,1.682,11.876,11.876,0,0,0-1.656,4.07h-.033V35.022h-4.305V65.085h4.305V49.728a15.545,15.545,0,0,1,1.06-6.349q1.093-2.442,2.782-2.442a6.753,6.753,0,0,1,1.292.271,2.945,2.945,0,0,1,1.027.705l.166.217V35.077l-.1-.054a2.238,2.238,0,0,0-1.623-.488m11.724-.163a7.954,7.954,0,0,0-7.12,4.341c-1.722,2.876-2.55,6.837-2.55,11.829,0,4.667.861,8.465,2.517,11.233,1.656,2.713,3.908,4.124,6.723,4.124,2.948,0,5.3-1.465,6.988-4.4,1.722-2.93,2.55-6.837,2.55-11.667,0-4.775-.795-8.574-2.418-11.341a7.349,7.349,0,0,0-6.69-4.124m3.444,23.116a3.865,3.865,0,0,1-3.61,2.5,4.035,4.035,0,0,1-3.709-2.6,15.794,15.794,0,0,1-1.325-7.217,16.869,16.869,0,0,1,1.325-7.38q1.341-2.6,3.676-2.6a3.92,3.92,0,0,1,3.577,2.5A16.443,16.443,0,0,1,249.667,50c-.066,3.256-.431,5.806-1.259,7.488M263.676,47.5a10.139,10.139,0,0,1-2.616-2.225,4.383,4.383,0,0,1-.5-2.279,3.216,3.216,0,0,1,.7-2.171,2.354,2.354,0,0,1,1.888-.814,5.556,5.556,0,0,1,2.219.543,5.2,5.2,0,0,1,1.921,1.465l.166.217v-6.62l-.1-.054a8.8,8.8,0,0,0-1.954-.922,8.3,8.3,0,0,0-2.12-.326,5.977,5.977,0,0,0-5.067,2.6,10.52,10.52,0,0,0-1.954,6.62,13.527,13.527,0,0,0,.431,3.69,9.012,9.012,0,0,0,1.325,2.822,11.838,11.838,0,0,0,2.649,2.442,24.27,24.27,0,0,1,2.219,1.682,5.9,5.9,0,0,1,.994,1.3,4.684,4.684,0,0,1,.265,1.682c0,2.008-.927,2.984-2.815,2.984a4.933,4.933,0,0,1-2.384-.705,8.79,8.79,0,0,1-2.418-2.008l-.166-.217v6.891l.1.054a9.736,9.736,0,0,0,2.318,1.194,9.366,9.366,0,0,0,2.484.488,6.2,6.2,0,0,0,5.332-2.6,10.875,10.875,0,0,0,2.02-6.837,11.035,11.035,0,0,0-1.06-5.155,14.206,14.206,0,0,0-3.875-3.744M279.97,34.371a7.953,7.953,0,0,0-7.12,4.341c-1.689,2.876-2.55,6.837-2.55,11.829,0,4.667.861,8.465,2.517,11.233,1.656,2.713,3.908,4.124,6.723,4.124,2.948,0,5.3-1.465,6.988-4.4,1.722-2.93,2.55-6.837,2.55-11.667,0-4.775-.795-8.574-2.418-11.341a7.349,7.349,0,0,0-6.69-4.124m3.411,23.116a3.865,3.865,0,0,1-3.61,2.5,4,4,0,0,1-3.709-2.6,15.794,15.794,0,0,1-1.325-7.217,16.869,16.869,0,0,1,1.325-7.38q1.341-2.6,3.676-2.6a3.954,3.954,0,0,1,3.577,2.5A16.443,16.443,0,0,1,284.639,50a17.7,17.7,0,0,1-1.258,7.488m28.713-16.659V35.022h-4.338v-8.9l-.132.054-4.107,2.008-.1.054v6.783h-6.491v-3.8a8.759,8.759,0,0,1,.729-3.961,2.212,2.212,0,0,1,2.02-1.3,3.341,3.341,0,0,1,1.921.705l.166.163V20.7l-.1-.054a4.991,4.991,0,0,0-2.418-.543,5.446,5.446,0,0,0-3.444,1.3,8.69,8.69,0,0,0-2.351,3.853,16.97,16.97,0,0,0-.861,5.589v4.178h-3.014v5.752h3.014v24.31h4.338V40.829h6.491V56.294c0,6.349,1.821,9.55,5.465,9.55a7.151,7.151,0,0,0,1.821-.326,4.563,4.563,0,0,0,1.358-.705l.033-.054V58.953l-.166.217a2.49,2.49,0,0,1-.894.651,1.968,1.968,0,0,1-.861.217,1.935,1.935,0,0,1-1.888-1.14,8.838,8.838,0,0,1-.6-3.853V40.829Z" transform="translate(-112.094 -9.193)"/><path class="l" d="M0,0H20.3V33.264H0Z"/><path class="m" d="M67.7,0H88V33.264H67.7Z" transform="translate(-45.279)"/><path class="n" d="M0,67.7H20.3v33.264H0Z" transform="translate(0 -30.964)"/><path class="o" d="M67.7,67.7H88v33.264H67.7Z" transform="translate(-45.279 -30.964)"/></g><g transform="translate(950.395 6451)"><path class="p" d="M120,0H0V70H120Z"/><path class="q" d="M100.823,14.757a.2.2,0,0,0,.229-.142.9.9,0,0,0,.025-.183.39.39,0,0,0-.1-.284.465.465,0,0,0-.267-.041h-.064v.629h.178Zm-.114-.994c.191,0,.28,0,.356.061.254.122.28.487.28.609a1.237,1.237,0,0,1-.013.183.662.662,0,0,1-.178.386.275.275,0,0,1-.064.041l.318.933H101.1l-.28-.852h-.178v.852h-.28V13.763Zm.114,3.125c.687,0,1.234-.893,1.234-1.968,0-1.1-.547-1.968-1.234-1.968s-1.221.872-1.221,1.968C99.6,15.995,100.149,16.887,100.823,16.887Zm-.967-1.968c0-.852.433-1.562.967-1.562s.98.71.98,1.562c0,.832-.445,1.542-.98,1.542s-.967-.71-.967-1.542ZM91.281,27.438c-1.628,0-2.99-1.745-3.41-4.119h9.008l1.247-3.084H87.858c.407-2.374,1.794-4.139,3.41-4.139h6.209l1.234-3.084H91.128c-3.041,0-5.5,3.916-5.5,8.745s2.455,8.745,5.5,8.745h6.514l1.234-3.084H91.268ZM65.467,30.522c-3.028,0-5.483-3.916-5.483-8.745s2.455-8.745,5.483-8.745h7.583L71.8,16.116H65.594c-1.959,0-3.55,2.536-3.55,5.661s1.59,5.661,3.55,5.661H73.2l-1.247,3.084H65.441ZM25.39,27.438c1.959,0,3.562-2.536,3.562-5.661s-1.59-5.661-3.562-5.661H19.3c-1.959,0-3.55,2.536-3.55,5.661s1.59,5.661,3.55,5.661Zm-6.234,3.084c-3.041,0-5.5-3.916-5.5-8.745s2.455-8.745,5.5-8.745H25.53c3.028,0,5.483,3.916,5.483,8.745s-2.455,8.745-5.483,8.745ZM41.37,24.861c2.061,0,3.715-2.658,3.715-5.925s-1.654-5.925-3.715-5.925H32.133v17.51h2.112V16.1H41.23C42.2,16.1,43,17.374,43,18.937s-.8,2.82-1.768,2.82H35.276l6.285,8.765h3.066L40.39,24.861h.954Zm34.911,2.577V13.032h-2.1V28.858a2.2,2.2,0,0,0,.305,1.177,1,1,0,0,0,.776.507h9.631l1.247-3.084H76.294ZM50.454,24.354H56.09L53.113,16.7,47.642,30.542H45.161l6.641-16.6a1.54,1.54,0,0,1,1.31-1.075A1.521,1.521,0,0,1,54.4,13.9l6.667,16.638H58.571L57.4,27.458H51.7l-1.247-3.084Z" transform="translate(3.719 13.243)"/></g><g transform="translate(1120.79 6451)"><path class="r" d="M0,0V69.965H60.642L120,.008H0Z"/><path class="s" d="M58.079,40.576v5.218h.668V43.53H59.5l1.211,2.264h.752L60.167,43.53a1.332,1.332,0,0,0,1.17-1.477c0-1.029-.534-1.477-1.587-1.477Zm.668.689h.919c.452,0,.961.087.961.738,0,.815-.515.886-1.086.886h-.794Zm.835-2.609c-2.12,0-3.926,1.925-3.926,4.529,0,2.623,1.806,4.578,3.926,4.578,2.09,0,3.843-1.955,3.843-4.578C63.425,40.581,61.673,38.656,59.583,38.656Zm0,.738c1.729,0,3.091,1.647,3.091,3.79,0,2.18-1.361,3.791-3.091,3.791-1.759,0-3.174-1.61-3.174-3.791C56.408,41.041,57.823,39.395,59.583,39.395Z" transform="translate(18.733 22.237)"/><path class="t" d="M71.482,28.942h-2.6V17.731h2.6c3.472,0,6.237,1.348,6.237,5.534,0,4.322-2.764,5.677-6.237,5.677M43.487,36.957a9.36,9.36,0,0,1-3.784-.791L43.45,22.241h.08L47.2,36.2a9.544,9.544,0,0,1-3.708.753m27.3-28.334H58.981v33.1L48.663,8.623H38.435L29.619,36.3c-.932-6.975-7.063-9.39-11.882-11.191-3.177-1.205-6.559-2.976-6.528-4.937.027-1.6,1.816-3.091,5.346-2.869,2.379.142,4.478.369,8.644,2.743l4.1-8.424A28.031,28.031,0,0,0,15.924,7.883H15.9c-5.027,0-9.216,1.931-11.814,5.093A12.94,12.94,0,0,0,1.257,21.1c-.067,4.266,1.266,7.293,4.055,9.715a26.112,26.112,0,0,0,8.032,4.334c3.281,1.192,5.96,2.234,5.929,4.453a3.537,3.537,0,0,1-.778,2.164c-.817,1-2.072,1.37-3.808,1.416-3.347.079-5.829-.536-9.782-3.289L1.257,48.435a24.151,24.151,0,0,0,13.37,4.192h.616A14.7,14.7,0,0,0,25.407,48.6l.433-.446L24.659,51.9H35.385l1.8-6.457a17.566,17.566,0,0,0,12.464.061l1.732,6.4h17.5V38.528H72.7c9.222,0,14.684-5.532,14.684-14.817,0-10.334-5.3-15.074-16.6-15.074" transform="translate(0.422 4.535)"/></g><g transform="translate(697.986 6459.147)"><path class="u" d="M15.289,36.955a9.818,9.818,0,0,1,.054,3.447c-.235,1.554-.879,3.141-2.785,3.141-1.785,0-2.872-1.685-2.872-4.224V34.8H2.013v3.589c0,10.4,5.013,13.537,10.389,13.537,5.168,0,9.423-2.867,10.1-10.648a36.948,36.948,0,0,0-.027-7.638C21.268,23.878,10.423,20.967,9.611,15.507a9.675,9.675,0,0,1-.027-2.451c.2-1.5.826-3.13,2.611-3.13,1.678,0,2.651,1.685,2.651,4.224v2.889H21.98V13.756c0-10.155-5.591-11.742-9.631-11.742-5.087,0-9.242,2.747-10,10.352a26.347,26.347,0,0,0,.067,6.281c1.242,9.521,11.4,12.278,12.872,18.308" transform="translate(0 -0.074)"/><path class="u" d="M83.221,4.742l-5.3,46.608h7.725l3.913-42.3h.161l3.805,42.3h7.685L95.939,4.731Zm43.188,0-3.523,35.631h-.168L119.2,4.742H107.543l-.631,46.608h7.154l.174-41.9h.161l4.772,41.9h7.255l4.779-41.891h.154l.181,41.891h7.148L138.06,4.731Z" transform="translate(-50.603 -1.314)"/><path class="u" d="M15.289,36.955a9.818,9.818,0,0,1,.054,3.447c-.235,1.554-.879,3.141-2.785,3.141-1.785,0-2.872-1.685-2.872-4.224V34.8H2.013v3.589c0,10.4,5.013,13.537,10.389,13.537,5.168,0,9.423-2.867,10.1-10.648a36.948,36.948,0,0,0-.027-7.638C21.268,23.878,10.423,20.967,9.611,15.507a9.675,9.675,0,0,1-.027-2.451c.2-1.5.826-3.13,2.611-3.13,1.678,0,2.651,1.685,2.651,4.224v2.889H21.98V13.756c0-10.155-5.591-11.742-9.631-11.742-5.087,0-9.242,2.747-10,10.352a26.347,26.347,0,0,0,.067,6.281c1.242,9.521,11.4,12.278,12.872,18.308" transform="translate(92.933 -0.161)"/><path class="u" d="M372.518,43.311c1.987,0,2.6-2.232,2.738-3.371a16.566,16.566,0,0,0,.067-1.784V3.686h7.235V37.1q0,1.534-.067,3.064c-.5,8.7-4.718,11.523-9.973,11.523s-9.476-2.823-9.98-11.523c-.02-.46-.074-2.211-.067-3.064V3.675h7.235V38.146a15.1,15.1,0,0,0,.067,1.795c.134,1.138.752,3.371,2.745,3.371M407.471,3.686l.389,36.583h-.154L401.129,3.686h-10.6V49.8h7.027l-.389-37.853h.154L404.371,49.8h10.181V3.686ZM432.136,42.83c2.067,0,2.792-2.134,2.919-3.392a16.271,16.271,0,0,0,.067-1.751V30.9h-2.933V24.117h10.127v12.5c0,.875-.013,1.51-.1,3.064-.47,8.492-4.987,11.523-10.054,11.523s-9.577-3.031-10.054-11.523c-.081-1.554-.1-2.189-.1-3.064V17c0-.832.067-2.3.121-3.064.638-8.722,4.966-11.523,10.034-11.523s9.51,2.78,10.034,11.512c.094,1.488.067,3.064.067,3.064v1.565h-7.208V15.942s0-1.094-.087-1.773c-.134-1.029-.671-3.392-2.859-3.392-2.081,0-2.691,2.243-2.846,3.392a17.029,17.029,0,0,0-.121,2.2V37.675c0,.591.013,1.248.067,1.773.134,1.248.859,3.381,2.926,3.381" transform="translate(-240.304 -0.257)"/></g><g transform="translate(700 6596)"><path class="v" d="M0,0H140V140H0Z"/><g transform="translate(15.35 30.551)"><path class="w" d="M124.017,59.617a5.964,5.964,0,0,0-1.371,3.763V75.194a4.3,4.3,0,0,1-1.012,2.437c-.327.309-2.252,1.943-2.416,2.129l1.078.031c.359-.309,4.081-3.424,4.44-3.856a5.862,5.862,0,0,0,1.7-4.072V60.512a4.223,4.223,0,0,1,1.274-3.115c.457-.463,1.894-1.6,2.154-1.882l-1.142-.031C128.49,55.762,124.409,59.247,124.017,59.617Zm-9.174,42.967,4.538,3.733h3.036a11.335,11.335,0,0,0,7.77-3.023,8.574,8.574,0,0,0,2.547-6.355V90.8a4.874,4.874,0,0,0-1.763-3.639c-.2-.185-1.534-1.388-1.534-1.388v4.719s1.469,1.419,1.73,1.7c1.338,1.358,1.338,3.825-2.939,7.742a8.874,8.874,0,0,1-5.811,2.591Z" transform="translate(-63.195 -55.453)"/><path class="w" d="M115.61,89.491a4.6,4.6,0,0,0-.98,2.837v2.313h2.481a3.808,3.808,0,0,0,2.514-1.264V91.063a5.882,5.882,0,0,0,1.338,1.326c.261-.309,2.546-2.9,4.44-2.93,3.167-.031,2.449,3.763,1.176,4.966-.424.4-2.285,2-2.873,2.529-1.5,1.358-4.081.71-4.081-2.776,0,0-2.742,2.468-3.167,2.807s-1.828,1.758-1.828,1.758v6.139a5.82,5.82,0,0,1-1.861,4.812c-.327.339-3.819,3.362-4.309,3.7l-1.143.031s2.057-1.758,2.449-2.159a4.066,4.066,0,0,0,1.012-2.931c0-.4-.065-9.624-.065-9.624H94.781c-5.55,0-6.725-5.8-6.758-7.372V85.512a3.839,3.839,0,0,0-1.665-3.054h1.568c.2.061,1.175.432,1.175,4.009,0,0-.065,4.134-.065,4.38a3.931,3.931,0,0,0,3.722,3.886l18.021-.031a6.165,6.165,0,0,1,1.372-3.115c.49-.524,4.375-3.856,4.8-4.194h1.142c-.163.154-2.056,1.727-2.448,2.159Zm5.91,3.485a15.32,15.32,0,0,0,1.534,1.7c1.958,1.48,2.873-.123,1.567-1.789-.523-.678-2.514-.493-3.1.093Z" transform="translate(-51.328 -67.56)"/><path class="w" d="M105.667,91.825c0,.832-2.775,3.023-2.939,3.146-.2-.895-.914-1.851-2.971-3.825l3.036-2.868C104.851,90.221,105.667,90.653,105.667,91.825Zm5.289-32.973c.62.586,1.926,2.128,1.142,2.9q-.887.843-1.763,1.7c-.065-.37-1.077-1.3-1.077-1.3v3.115c-.033,1.264-.523,1.6-.523,1.6a8.129,8.129,0,0,1,2.448,5.243v3.023a2,2,0,0,1-.62,1.543c-.229.246-2.481,2.406-2.841,2.683a2.727,2.727,0,0,1-1.861.648H97.408c-1.339,0-2.71-.987-2.71-1.974,0-.247.033-2.961.033-2.961a2.367,2.367,0,0,0,1.926,1.017,3.111,3.111,0,0,0,1.926-.864c.229-.246,6.4-6.292,6.4-6.292a51.288,51.288,0,0,0-4.766-3.732,1.678,1.678,0,0,0-2.351.925,19.02,19.02,0,0,0,0,6.045l-2.318-2.19a2.9,2.9,0,0,1,.228-3.948,6.208,6.208,0,0,1,4.049-1.974h3.363c2.252,0,4.734,2.129,4.734,2.129a1.332,1.332,0,0,0,.359-.741c0-1.11-.033-4.04-.033-4.04-1.7-1.6-1.926-3.27-1.11-4.041,1.534-1.45,2.09-1.943,2.09-1.943a4.838,4.838,0,0,0,1.73,3.424ZM100.345,74.891a7.305,7.305,0,0,1-1.763,1.48h9.533c2.579,0,2.057-1.511,1.6-2.282a34.021,34.021,0,0,0-3.95-4.473S100.509,74.737,100.345,74.891Z" transform="translate(-54.802 -55.428)"/><path class="w" d="M84.624,105.626H83.057a3.5,3.5,0,0,1,1.665,3.115v7.187a9.231,9.231,0,0,0,9.043,8.976h4.146a6.15,6.15,0,0,0,4.865-1.82,20.845,20.845,0,0,0,1.534-1.511,4.937,4.937,0,0,0,1.8-4.072v-2.344a4.261,4.261,0,0,0-1.861-3.455q-.715-.666-1.436-1.326v4.812s1.044,1.048,1.5,1.388c2.154,1.6.457,4.38-1.567,4.38H93.634c-3.33.061-7.868-2.745-7.868-7.5v-3.886c.032-3.948-1.143-3.948-1.143-3.948Z" transform="translate(-49.953 -77.958)"/><path class="w" d="M70.973,118.63c0,.832-2.775,3.023-2.938,3.146-.2-.895-.914-1.851-2.971-3.825l3.037-2.868c2.024,1.913,2.873,2.344,2.873,3.547ZM39.142,150.555h-4.9c-1.534,0-1.4-1.2-1.567-2.221v-6.6s1.078-.031,2.285-.031a9.246,9.246,0,0,1,4.669.678,5.008,5.008,0,0,0-4.669-2.683H32.711v-2.129s0-1.851-.49-2.375h3.232c2.776,0,4.93-.031,7.183,1.357,0,0-.424-3.485-5.811-3.485H26.312a5.731,5.731,0,0,1,1.762,4.472l.065,12.03c0,3.023,1.274,3.115,1.274,3.115H39.763c2.35,0,3.167-1.573,3.167-2.436l.033-1.141S42.211,150.555,39.142,150.555ZM66.7,149.537v-8.42c0-3.27-2.808-4.134-4.93-4.134a4.209,4.209,0,0,0-3.983,2.961c-.621-2.035-2.808-2.961-4.571-2.961A4.346,4.346,0,0,0,49,140.006s-.065-2.93-2.775-2.93H43.582s1.534.586,1.534,3.115v9.346c0,3.084,1.306,3.146,1.306,3.146H50.8a3.888,3.888,0,0,1-1.665-3.177v-8.3a2.459,2.459,0,0,1,2.579-1.6,2.339,2.339,0,0,1,2.22,2.221v7.711c0,3.115,1.306,3.146,1.306,3.146h4.374a3.932,3.932,0,0,1-1.665-3.177v-8.3a2.5,2.5,0,0,1,3.1-1.481,2.342,2.342,0,0,1,1.7,2.129v7.68c.033,3.146,1.306,3.115,1.306,3.115h4.375a3.887,3.887,0,0,1-1.731-3.115Zm7.639,0A3.875,3.875,0,0,0,76,152.683H71.626s-1.338.031-1.338-3.115V140.16c0-2.468-1.5-3.115-1.5-3.115h2.645c.946,0,2.873,0,2.873,3.485v8.946Zm13.451-11.289s-.424-1.11-2.22-1.11c-2.742,0-3.4,3.084-3.4,3.084-.229-2.437-.914-3.146-2.841-3.146H76.686s1.534.586,1.534,3.115v9.346c0,3.084,1.307,3.146,1.307,3.146H83.9a3.875,3.875,0,0,1-1.665-3.146v-7.68a2.2,2.2,0,0,1,1.078-1.573,3.572,3.572,0,0,1,4.538.617Zm20.34.556a5.651,5.651,0,0,1,2.579.617v-2.344h-3.656V133.5a13.6,13.6,0,0,1-2.939,3.115,26.626,26.626,0,0,1-3.852,2.16l2.775.031V149.66c0,3.023,1.338,3.023,1.338,3.023h4.342a3.83,3.83,0,0,1-1.7-3.054V138.8h1.11Zm13.255,4.719c-2.448,2.406-4.375,2.035-5.91,3.825a4.252,4.252,0,0,0,2.188,3.239,3.9,3.9,0,0,0,5.093-1.635v2.529s-1.11,1.234-4.668,1.234c-4.277,0-7.215-3.177-7.215-7.495,0-4.257,2.384-8.174,6.921-8.2C122.2,136.952,124.613,140.345,121.381,143.522Zm-2.677-.987c.718-1.264,1.306-4.472-1.175-4.288-2.873.216-2.318,7.4-2.318,7.4.947-.987,2.383-1.2,3.493-3.115Zm-46.392-6.724a1.885,1.885,0,1,0-2.024-1.882,1.964,1.964,0,0,0,2.024,1.882Zm20.013,15.083a1.889,1.889,0,0,1-1.7-1.974c0-3.886,3.363-4.441,4.277-5.459v6.57a3.241,3.241,0,0,1-2.579.864Zm2.579-8.946c-1.012,1.666-8.912,2.036-7.7,7.8.49,2.282,2.09,2.961,4.113,2.961a3.966,3.966,0,0,0,3.657-1.881c.294,1.727,1.241,1.85,1.241,1.85h4.374a3.854,3.854,0,0,1-1.7-3.115v-8.79c0-2.1-2.448-3.732-5.06-3.732a7.261,7.261,0,0,0-4.081,1.141V140.9a3.652,3.652,0,0,1,3.167-2.159c2.22,0,2.384,1.048,2.384,1.573a2.658,2.658,0,0,1-.392,1.635Zm36.141,6.478c.033,1.11-1.012,2.56-3.232,2.56a3.676,3.676,0,0,1-3.2-2.19v2.776a8.08,8.08,0,0,0,4.146,1.11c2.971,0,6.007-2.128,5.942-5.12a4.585,4.585,0,0,0-1.012-2.714c-1.012-1.264-2.841-2.159-4.277-2.992a2.539,2.539,0,0,1-1.241-1.6c-.033-.525.261-1.573,2.448-1.573a3.682,3.682,0,0,1,3.1,2.159v-2.622a7.586,7.586,0,0,0-4.179-1.234c-2.612,0-4.995,1.635-4.93,3.732a4.865,4.865,0,0,0,2.448,4.164,20.2,20.2,0,0,0,2.253,1.326A2.7,2.7,0,0,1,131.045,148.427Z" transform="translate(-26.312 -82.202)"/></g></g><path class="x" d="M37.283,13.5A21.492,21.492,0,0,0,15.252,35c0,13,10.567,21.5,22.13,21.5,7.675,0,14.953-3.4,21.133-8.9V63.7A46.793,46.793,0,0,1,36.285,70C16.548,70,0,53.9,0,35,0,15,16.647,0,36.385,0a54.282,54.282,0,0,1,22.23,5.2V21c-7.277-4.8-14.653-7.5-21.332-7.5ZM100.474,70C80.637,70,63.89,54.5,63.89,35c0-19.7,16.648-35,37.482-35,7.576,0,16.947,2,22.728,4.7V20.4c-6.579-3.8-15.052-6.9-22.429-6.9C88.015,13.5,79.142,24.2,79.142,35c0,12.7,10.467,21.9,22.728,21.9a21.761,21.761,0,0,0,8.274-1.4V42.9H98.98V29.6H124.5V65a58.072,58.072,0,0,1-24.026,5Zm35.172-1.4V1.4H150V68.6Z" transform="translate(1091 6631)"/></g></svg>